<?xml version="1.0" encoding="UTF-8" standalone="no"?>
<!-- Created with Inkscape (http://www.inkscape.org/) -->

<svg
   xmlns:dc="http://purl.org/dc/elements/1.1/"
   xmlns:cc="http://creativecommons.org/ns#"
   xmlns:rdf="http://www.w3.org/1999/02/22-rdf-syntax-ns#"
   xmlns:svg="http://www.w3.org/2000/svg"
   xmlns="http://www.w3.org/2000/svg"
   xmlns:sodipodi="http://sodipodi.sourceforge.net/DTD/sodipodi-0.dtd"
   xmlns:inkscape="http://www.inkscape.org/namespaces/inkscape"
   width="297mm"
   height="210mm"
   id="svg3009"
   version="1.1"
   inkscape:version="0.48.4 r9939"
   sodipodi:docname="New document 2">
  <defs
     id="defs3011" />
  <sodipodi:namedview
     inkscape:document-units="mm"
     pagecolor="#ffffff"
     bordercolor="#666666"
     borderopacity="1.0"
     inkscape:pageopacity="0.0"
     inkscape:pageshadow="2"
     inkscape:zoom="0.61399264"
     inkscape:cx="571.60985"
     inkscape:cy="388.69199"
     inkscape:current-layer="layer1"
     id="namedview3013"
     showgrid="false"
     inkscape:window-width="1366"
     inkscape:window-height="706"
     inkscape:window-x="-8"
     inkscape:window-y="-8"
     inkscape:window-maximized="1" />
  <metadata
     id="metadata3015">
    <rdf:RDF>
      <cc:Work
         rdf:about="">
        <dc:format>image/svg+xml</dc:format>
        <dc:type
           rdf:resource="http://purl.org/dc/dcmitype/StillImage" />
        <dc:title></dc:title>
      </cc:Work>
    </rdf:RDF>
  </metadata>
  <g
     inkscape:label="Layer 1"
     inkscape:groupmode="layer"
     id="layer1">
    <text
       xml:space="preserve"
       style="font-size:88.71303558px;font-style:normal;font-weight:normal;line-height:125%;letter-spacing:0px;word-spacing:0px;fill:#000000;fill-opacity:1;stroke:none;font-family:Sans"
       x="45.515869"
       y="272.4267"
       id="text3018"
       sodipodi:linespacing="125%"><tspan
         sodipodi:role="line"
         id="tspan3020"
         x="45.515869"
         y="272.4267"
         style="font-size:101.38632965px;font-style:normal;font-variant:normal;font-weight:normal;font-stretch:normal;font-family:Ubuntu;-inkscape-font-specification:Ubuntu"><tspan
           style="font-size:158.4161377px"
           id="tspan3024"><tspan
             style="font-size:190.09936523px"
             id="tspan3030">ubuntu</tspan></tspan><tspan
           style="font-style:normal;font-variant:normal;font-weight:normal;font-stretch:normal;font-family:Cambria;-inkscape-font-specification:Cambria"
           id="tspan3022"> </tspan></tspan><tspan
         sodipodi:role="line"
         x="45.515869"
         y="418.40915"
         style="font-size:101.38632965px;font-style:normal;font-variant:normal;font-weight:normal;font-stretch:normal;font-family:Ubuntu;-inkscape-font-specification:Ubuntu"
         id="tspan3026"><tspan
           style="font-style:normal;font-variant:normal;font-weight:normal;font-stretch:normal;font-family:Cambria;-inkscape-font-specification:Cambria"
           id="tspan3028">satanic edition</tspan></tspan></text>
    <g
       transform="matrix(0.77406847,0,0,0.77406847,618.08249,-10.953209)"
       id="layer1-1"
       inkscape:label="Calque 1">
      <g
         transform="translate(-1775.7702,10.498663)"
         id="g8632">
        <path
           style="fill:#aa0000;fill-opacity:1;stroke:none"
           d="m 1916.3438,149.71875 c -1.962,0 -3.5626,1.56993 -3.5626,3.53125 0,1.96132 1.6006,3.5625 3.5626,3.5625 1.9601,0 3.5312,-1.60118 3.5312,-3.5625 0,-1.96132 -1.5711,-3.53125 -3.5312,-3.53125 z"
           id="path7040"
           inkscape:connector-curvature="0" />
        <path
           style="fill:#aa0000;fill-opacity:1;stroke:none"
           d="m 1872.125,152.34375 c -1.6704,0 -3.0312,1.36087 -3.0312,3.03125 0,1.67038 1.3608,3.03125 3.0312,3.03125 1.6704,0 3.0312,-1.36087 3.0312,-3.03125 0,-1.67038 -1.3608,-3.03125 -3.0312,-3.03125 z"
           id="path7038"
           inkscape:connector-curvature="0" />
        <path
           style="fill:#aa0000;fill-opacity:1;stroke:none"
           d="m 1915.125,160.09375 c -2.4428,0 -4.4062,1.9635 -4.4062,4.40625 0,2.44275 1.9634,4.4375 4.4062,4.4375 2.4428,0 4.4375,-1.99475 4.4375,-4.4375 0,-2.44275 -1.9947,-4.40625 -4.4375,-4.40625 z"
           id="path7036"
           inkscape:connector-curvature="0" />
        <path
           style="fill:#aa0000;fill-opacity:1;stroke:none"
           d="m 1906.4375,163.0625 c -1.9042,0 -3.4375,1.53329 -3.4375,3.4375 0,1.90421 1.5333,3.4375 3.4375,3.4375 1.9042,0 3.4687,-1.53329 3.4687,-3.4375 0,-1.90421 -1.5645,-3.4375 -3.4687,-3.4375 z"
           id="path7034"
           inkscape:connector-curvature="0" />
        <path
           style="fill:#aa0000;fill-opacity:1;stroke:none"
           d="m 2149.0312,173.84375 c -2.4661,0 -4.4687,2.00253 -4.4687,4.46875 0,2.46622 2.0026,4.46875 4.4687,4.46875 2.4665,0 4.4688,-2.00253 4.4688,-4.46875 0,-2.46622 -2.0023,-4.46875 -4.4688,-4.46875 z"
           id="path7032"
           inkscape:connector-curvature="0" />
        <path
           style="fill:#aa0000;fill-opacity:1;stroke:none"
           d="m 1897.0625,183.65625 c -4.4516,0 -8.0313,3.57965 -8.0313,8.03125 0,4.4516 3.5797,8.0625 8.0313,8.0625 4.4516,0 8.0625,-3.6109 8.0625,-8.0625 0,-4.4516 -3.6109,-8.03125 -8.0625,-8.03125 z"
           id="path7030"
           inkscape:connector-curvature="0" />
        <path
           style="fill:#aa0000;fill-opacity:1;stroke:none"
           d="m 2182.9375,184.3125 c -1.5058,0 -2.75,1.21294 -2.75,2.71875 0,1.50581 1.2442,2.71875 2.75,2.71875 1.5058,0 2.7187,-1.21294 2.7187,-2.71875 0,-1.50581 -1.2129,-2.71875 -2.7187,-2.71875 z"
           id="path7028"
           inkscape:connector-curvature="0" />
        <path
           style="fill:#aa0000;fill-opacity:1;stroke:none"
           d="m 1886.3125,187.9375 c -1.0413,0 -1.875,0.83373 -1.875,1.875 0,1.04127 0.8337,1.875 1.875,1.875 1.0413,0 1.875,-0.83373 1.875,-1.875 0,-1.04127 -0.8337,-1.875 -1.875,-1.875 z"
           id="path7026"
           inkscape:connector-curvature="0" />
        <path
           style="fill:#aa0000;fill-opacity:1;stroke:none"
           d="m 2172.5625,197.5 c -4.3348,0 -7.8437,3.54016 -7.8437,7.875 0,4.33484 3.5089,7.84375 7.8437,7.84375 0.392,0 1.8238,21.27526 -0.4029,32.98769 -1.3167,6.9262 0.05,7.52275 1.7086,7.42333 2.1087,-0.12639 2.0862,-1.43745 0.9293,-7.75811 -2.1754,-11.88508 0.73,-33.22236 1.0325,-33.36026 2.7136,-1.23705 4.6075,-3.96579 4.6075,-7.1364 0,-4.33484 -3.5402,-7.875 -7.875,-7.875 z"
           id="path7024"
           inkscape:connector-curvature="0"
           sodipodi:nodetypes="sssssssss" />
        <path
           style="fill:#aa0000;fill-opacity:1;stroke:none"
           d="m 2127.75,198.34375 c -4.458,0 -8.0625,3.60451 -8.0625,8.0625 0,4.45799 3.6045,8.09375 8.0625,8.09375 4.458,0 8.0938,-3.63576 8.0938,-8.09375 0,-4.45799 -3.6358,-8.0625 -8.0938,-8.0625 z"
           id="path7022"
           inkscape:connector-curvature="0" />
        <path
           style="fill:#aa0000;fill-opacity:1;stroke:none"
           d="m 2084.0312,199.375 c -2.6774,0 -4.8437,2.16606 -4.8437,4.84375 0,2.67769 2.1663,4.84375 4.8437,4.84375 2.6778,0 4.8438,-2.16606 4.8438,-4.84375 0,-2.67769 -2.166,-4.84375 -4.8438,-4.84375 z"
           id="path7020"
           inkscape:connector-curvature="0" />
        <path
           style="fill:#aa0000;fill-opacity:1;stroke:none"
           d="m 1975.5312,203.09375 c -1.8161,0 -3.3124,1.46515 -3.3124,3.28125 0,1.8161 1.4963,3.28125 3.3124,3.28125 1.8166,0 3.2813,-1.46515 3.2813,-3.28125 0,-1.8161 -1.4647,-3.28125 -3.2813,-3.28125 z"
           id="path7018"
           inkscape:connector-curvature="0" />
        <path
           style="fill:#aa0000;fill-opacity:1;stroke:none"
           d="m 2152.2188,211.15625 c -2.7855,0 -5.0313,2.27768 -5.0313,5.0625 0,2.78482 2.2458,5.03125 5.0313,5.03125 2.7844,0 5.0312,-2.24643 5.0312,-5.03125 0,-2.78482 -2.2468,-5.0625 -5.0312,-5.0625 z"
           id="path7016"
           inkscape:connector-curvature="0" />
        <path
           style="fill:#aa0000;fill-opacity:1;stroke:none"
           d="m 1932.7812,216.5625 c -3.394,0 -6.1562,2.76168 -6.1562,6.15625 0,3.39457 2.7622,6.125 6.1562,6.125 3.3986,0 6.1563,-2.73043 6.1563,-6.125 0,-3.39457 -2.7577,-6.15625 -6.1563,-6.15625 z"
           id="path7014"
           inkscape:connector-curvature="0" />
        <path
           style="fill:#aa0000;fill-opacity:1;stroke:none"
           d="m 1956.3125,240.125 c -4.4781,0 -8.0937,3.61562 -8.0937,8.09375 0,4.47813 3.6156,8.125 8.0937,8.125 4.4781,0 8.125,-3.64687 8.125,-8.125 0,-4.47813 -3.6469,-8.09375 -8.125,-8.09375 z"
           id="path7012"
           inkscape:connector-curvature="0" />
        <path
           style="fill:#aa0000;fill-opacity:1;stroke:none"
           d="m 2028.6875,245.125 c -2.0401,0 -3.6875,1.64743 -3.6875,3.6875 0,1.34993 0.7334,2.51372 1.8125,3.15625 -1.0721,0.24909 -1.875,1.22708 -1.875,2.375 0,1.33714 1.1004,2.40625 2.4375,2.40625 1.3371,0 2.4062,-1.06911 2.4062,-2.40625 0,-0.75214 -0.3364,-1.43093 -0.875,-1.875 1.9366,-0.11467 3.4688,-1.69092 3.4688,-3.65625 0,-2.04007 -1.6474,-3.6875 -3.6875,-3.6875 z"
           id="path7010"
           inkscape:connector-curvature="0" />
        <path
           style="fill:#aa0000;fill-opacity:1;stroke:none"
           d="m 1916.8125,246.84375 c -1.3118,0 -2.375,1.06323 -2.375,2.375 0,1.31177 1.0632,2.375 2.375,2.375 1.3118,0 2.375,-1.06323 2.375,-2.375 0,-1.31177 -1.0632,-2.375 -2.375,-2.375 z"
           id="path7008"
           inkscape:connector-curvature="0" />
        <path
           style="fill:#aa0000;fill-opacity:1;stroke:none"
           d="m 2004.6562,253.84375 c -3.0226,0 -5.4687,2.47489 -5.4687,5.5 0,3.02511 2.4461,5.46875 5.4687,5.46875 3.0254,0 5.5,-2.44364 5.5,-5.46875 0,-3.02511 -2.4746,-5.5 -5.5,-5.5 z"
           id="path7006"
           inkscape:connector-curvature="0" />
        <path
           style="fill:#aa0000;fill-opacity:1;stroke:none"
           d="m 2080.75,254.78125 c -1.3115,0 -2.375,1.06351 -2.375,2.375 0,1.31149 1.0635,2.375 2.375,2.375 1.3115,0 2.375,-1.06351 2.375,-2.375 0,-1.31149 -1.0635,-2.375 -2.375,-2.375 z"
           id="path7004"
           inkscape:connector-curvature="0" />
        <path
           style="fill:#aa0000;fill-opacity:1;stroke:none"
           d="m 2132.5625,255.46875 c -1.7084,0 -3.0937,1.38538 -3.0937,3.09375 0,1.70837 1.3853,3.09375 3.0937,3.09375 1.7084,0 3.0937,-1.38538 3.0937,-3.09375 0,-1.70837 -1.3853,-3.09375 -3.0937,-3.09375 z"
           id="path7002"
           inkscape:connector-curvature="0" />
        <path
           style="fill:#aa0000;fill-opacity:1;stroke:none"
           d="m 1902.4375,257.5625 c -1.7207,0 -3.0937,1.37301 -3.0937,3.09375 0,1.17475 0.6399,2.20199 1.5935,2.73561 0.1133,0.0634 1.0276,2.09669 0.5962,3.57082 -0.3115,1.06419 -0.016,1.48613 0.3249,1.48613 0.4593,0 0.413,-0.50203 0.2134,-1.47995 -0.2896,-1.41895 0.1793,-3.18761 0.3657,-3.18761 1.7207,0 3.125,-1.40426 3.125,-3.125 0,-1.72074 -1.4043,-3.09375 -3.125,-3.09375 z"
           id="path7000"
           inkscape:connector-curvature="0"
           sodipodi:nodetypes="sssssssss" />
        <path
           style="fill:#aa0000;fill-opacity:1;stroke:none"
           d="m 1935.8125,260.09375 c -2.5603,0 -4.6563,2.09591 -4.6563,4.65625 0,2.56034 2.096,4.625 4.6563,4.625 2.4008,0 4.3573,-1.81782 4.5937,-4.15625 0.3524,0.60625 0.9946,1.03125 1.75,1.03125 1.1332,0 2.0313,-0.90165 2.0313,-2.03125 0,-1.1296 -0.8981,-2.03125 -2.0313,-2.03125 -0.8822,0 -1.6232,0.56435 -1.9062,1.34375 -0.5365,-1.967 -2.3004,-3.4375 -4.4375,-3.4375 z"
           id="path6998"
           inkscape:connector-curvature="0" />
        <path
           style="fill:#aa0000;fill-opacity:1;stroke:none"
           d="m 2149.125,263.0625 c -1.0697,0 -1.9375,0.86778 -1.9375,1.9375 0,1.06972 0.8678,1.9375 1.9375,1.9375 1.0697,0 1.9375,-0.86778 1.9375,-1.9375 0,-1.06972 -0.8678,-1.9375 -1.9375,-1.9375 z"
           id="path6996"
           inkscape:connector-curvature="0" />
        <path
           style="fill:#aa0000;fill-opacity:1;stroke:none"
           d="m 1959.0938,267.09375 c -2.3678,0 -4.2813,1.91586 -4.2813,4.28125 0,2.36539 1.9135,4.28125 4.2813,4.28125 2.365,0 4.2812,-1.91586 4.2812,-4.28125 0,-2.36539 -1.9162,-4.28125 -4.2812,-4.28125 z"
           id="path6994"
           inkscape:connector-curvature="0" />
        <path
           style="fill:#aa0000;fill-opacity:1;stroke:none"
           d="m 2077.2812,278.34375 c -1.5715,0 -2.8437,1.27222 -2.8437,2.84375 0,1.57153 1.2722,2.84375 2.8437,2.84375 1.5717,0 2.8438,-1.27222 2.8438,-2.84375 0,-1.57153 -1.2721,-2.84375 -2.8438,-2.84375 z"
           id="path6992"
           inkscape:connector-curvature="0" />
        <path
           style="fill:#aa0000;fill-opacity:1;stroke:none"
           d="m 2056.8125,281.625 c -4.5398,0 -8.2187,3.67897 -8.2187,8.21875 0,4.53978 3.6789,8.21875 8.2187,8.21875 2.5065,0 4.7426,-1.13762 6.25,-2.90625 0.9971,0.53649 2.1009,0.84375 3.3125,0.84375 3.9092,0 7.0938,-3.15327 7.0938,-7.0625 0,-3.90923 -3.1846,-7.09375 -7.0938,-7.09375 -1.686,0 -3.2217,0.60966 -4.4375,1.59375 -1.4074,-1.12928 -3.1797,-1.8125 -5.125,-1.8125 z"
           id="path6990"
           inkscape:connector-curvature="0" />
        <path
           style="fill:#aa0000;fill-opacity:1;stroke:none"
           d="m 2090.5312,295.71875 c -4.7469,0 -8.5937,3.8468 -8.5937,8.59375 0,4.74695 3.8468,8.59375 8.5937,8.59375 4.7473,0 8.5938,-3.8468 8.5938,-8.59375 0,-4.74695 -3.8465,-8.59375 -8.5938,-8.59375 z"
           id="path6988"
           inkscape:connector-curvature="0" />
        <path
           style="fill:#aa0000;fill-opacity:1;stroke:none"
           d="m 2060.25,297.96875 c -4.4122,0 -8,3.5565 -8,7.96875 0,4.41225 3.5878,8 8,8 4.4122,0 8,-3.58775 8,-8 0,-4.41225 -3.5878,-7.96875 -8,-7.96875 z"
           id="path6986"
           inkscape:connector-curvature="0" />
        <path
           style="fill:#aa0000;fill-opacity:1;stroke:none"
           d="m 1930.25,298.875 c -3.2785,0 -5.9375,2.65897 -5.9375,5.9375 0,3.27853 2.659,5.9375 5.9375,5.9375 3.2785,0 5.9375,-2.65897 5.9375,-5.9375 0,-3.27853 -2.659,-5.9375 -5.9375,-5.9375 z"
           id="path6984"
           inkscape:connector-curvature="0" />
        <path
           style="fill:#aa0000;fill-opacity:1;stroke:none"
           d="m 2038.3125,299.34375 c -3.3601,0 -6.0937,2.70244 -6.0937,6.0625 0,3.36006 2.7336,6.09375 6.0937,6.09375 3.3601,0 6.0937,-2.73369 6.0937,-6.09375 0,-3.36006 -2.7336,-6.0625 -6.0937,-6.0625 z"
           id="path6982"
           inkscape:connector-curvature="0" />
        <path
           style="fill:#aa0000;fill-opacity:1;stroke:none"
           d="m 2008.6875,301.4375 c -0.9493,0 -1.7187,0.76946 -1.7187,1.71875 0,0.94929 0.7694,1.71875 1.7187,1.71875 0.9493,0 1.7187,-0.76946 1.7187,-1.71875 0,-0.94929 -0.7694,-1.71875 -1.7187,-1.71875 z"
           id="path6980"
           inkscape:connector-curvature="0" />
        <path
           style="fill:#aa0000;fill-opacity:1;stroke:none"
           d="m 2025.3438,302.4375 c -3.2446,0 -5.875,2.63083 -5.875,5.875 0,3.24417 2.6304,5.875 5.875,5.875 0.1899,0 1.3431,6.21739 0.1245,10.2949 -0.8763,2.93208 -1.3863,4.40583 0.3603,4.40334 1.2809,-0.002 1.925,-0.67072 1.0344,-4.40201 -0.8823,-3.69645 0.1516,-10.53541 0.2992,-10.58345 2.3533,-0.76611 4.0566,-2.97857 4.0566,-5.58778 0,-3.24417 -2.6332,-5.875 -5.875,-5.875 z"
           id="path6978"
           inkscape:connector-curvature="0"
           sodipodi:nodetypes="sssssssss" />
        <path
           style="fill:#aa0000;fill-opacity:1;stroke:none"
           d="m 1951.4062,306.5625 c -3.1748,0 -5.7952,2.3971 -6.1874,5.46875 -0.2944,-0.0654 -0.5922,-0.125 -0.9063,-0.125 -2.3175,0 -4.2187,1.87005 -4.2187,4.1875 0,2.31745 1.9012,4.21875 4.2187,4.21875 1.6089,0 2.9834,-0.92078 3.6875,-2.25 0.9793,0.63744 2.1544,1 3.4062,1 3.4466,0 6.25,-2.8039 6.25,-6.25 0,-3.4461 -2.8034,-6.25 -6.25,-6.25 z"
           id="path6976"
           inkscape:connector-curvature="0" />
        <path
           style="fill:#aa0000;fill-opacity:1;stroke:none"
           d="m 1973.5938,308.71875 c -3.9457,0 -7.125,3.21069 -7.125,7.15625 0,0.49905 0.058,0.97113 0.1562,1.4375 -0.5344,-0.11143 -1.0892,-0.15625 -1.6562,-0.15625 -4.4611,0 -8.0626,3.60521 -8.0626,8.0625 0,4.45729 3.6015,8.09375 8.0626,8.09375 2.8043,0 5.3043,-1.44656 6.75,-3.625 1.4293,0.95516 3.1731,1.5 5.0312,1.5 5.0368,0 9.125,-4.08825 9.125,-9.125 0,-3.73704 -2.2414,-6.93341 -5.4688,-8.34375 -0.9139,-2.88825 -3.6213,-5 -6.8124,-5 z"
           id="path6974"
           inkscape:connector-curvature="0" />
        <path
           style="fill:#aa0000;fill-opacity:1;stroke:none"
           d="m 2144.2188,314 c -4.5182,0 -8.1876,3.66979 -8.1876,8.1875 0,3.1802 1.8183,5.92793 4.4688,7.28125 0.4967,4.59576 4.3672,8.1875 9.0938,8.1875 5.0639,0 9.1874,-4.12342 9.1874,-9.1875 0,-4.22893 -2.8837,-7.78748 -6.7812,-8.84375 -1.073,-3.26652 -4.1557,-5.625 -7.7812,-5.625 z"
           id="path6972"
           inkscape:connector-curvature="0" />
        <path
           style="fill:#aa0000;fill-opacity:1;stroke:none"
           d="m 1943.75,325.71875 c -1.4454,0 -2.625,1.17957 -2.625,2.625 0,1.44543 1.1796,2.59375 2.625,2.59375 1.4454,0 2.5938,-1.14832 2.5938,-2.59375 0,-1.44543 -1.1484,-2.625 -2.5938,-2.625 z"
           id="path6970"
           inkscape:connector-curvature="0" />
        <path
           style="fill:#aa0000;fill-opacity:1;stroke:none"
           d="m 1944.6875,333.375 c -3.2369,0 -5.875,2.63808 -5.875,5.875 0,3.23692 2.6381,5.875 5.875,5.875 3.2369,0 5.8437,-2.63808 5.8437,-5.875 0,-3.23692 -2.6068,-5.875 -5.8437,-5.875 z"
           id="path6968"
           inkscape:connector-curvature="0" />
        <path
           style="fill:#aa0000;fill-opacity:1;stroke:none"
           d="m 1921.9375,337.1875 c -0.9496,0 -1.7187,0.76916 -1.7187,1.71875 0,0.94959 0.7691,1.71875 1.7187,1.71875 0.9496,0 1.7187,-0.76916 1.7187,-1.71875 0,-0.94959 -0.7691,-1.71875 -1.7187,-1.71875 z"
           id="path6966"
           inkscape:connector-curvature="0" />
        <path
           style="fill:#aa0000;fill-opacity:1;stroke:none"
           d="m 2123.375,339.375 c -2.2581,0 -4.0938,1.83566 -4.0938,4.09375 0,2.25809 1.8357,4.09375 4.0938,4.09375 2.2581,0 4.0625,-1.83566 4.0625,-4.09375 0,-2.25809 -1.8044,-4.09375 -4.0625,-4.09375 z"
           id="path6964"
           inkscape:connector-curvature="0" />
        <path
           style="fill:#aa0000;fill-opacity:1;stroke:none"
           d="m 2005.125,342.09375 c -4.0809,0 -7.375,3.32534 -7.375,7.40625 0,4.08091 3.2941,7.375 7.375,7.375 4.0809,0 7.4062,-3.29409 7.4062,-7.375 0,-4.08091 -3.3253,-7.40625 -7.4062,-7.40625 z"
           id="path6962"
           inkscape:connector-curvature="0" />
        <path
           style="fill:#aa0000;fill-opacity:1;stroke:none"
           d="m 2085.4375,348.65625 c -1.2559,0 -2.2813,1.02539 -2.2813,2.28125 0,1.25586 1.0254,2.28125 2.2813,2.28125 1.2559,0 2.2813,-1.02539 2.2813,-2.28125 0,-1.25586 -1.0254,-2.28125 -2.2813,-2.28125 z"
           id="path6960"
           inkscape:connector-curvature="0" />
        <path
           style="fill:#aa0000;fill-opacity:1;stroke:none"
           d="m 1879.0938,359.15625 c -3.5462,0 -6.4063,2.86053 -6.4063,6.40625 0,2.76685 1.7374,5.1325 4.1875,6.03125 -3.1995,0.65471 -5.625,3.48197 -5.625,6.875 0,3.87774 3.1535,7.03125 7.0312,7.03125 3.8816,0 7.0313,-3.15351 7.0313,-7.03125 0,-3.10651 -2.0163,-5.76213 -4.8125,-6.6875 2.1951,-0.49502 3.9779,-2.08348 4.6875,-4.1875 0.4127,0.17455 0.8682,0.25 1.3437,0.25 1.9058,0 3.4688,-1.53239 3.4688,-3.4375 0,-1.90511 -1.563,-3.4375 -3.4688,-3.4375 -0.8529,0 -1.6155,0.32658 -2.2187,0.84375 -1.1709,-1.61233 -3.0738,-2.65625 -5.2187,-2.65625 z"
           id="path6958"
           inkscape:connector-curvature="0" />
        <path
           style="fill:#aa0000;fill-opacity:1;stroke:none"
           d="m 2061.5312,363.0625 c -2.179,0 -3.9374,1.78962 -3.9374,3.96875 0,2.17913 1.7584,3.9375 3.9374,3.9375 2.1794,0 3.9376,-1.75837 3.9376,-3.9375 0,-2.17913 -1.7582,-3.96875 -3.9376,-3.96875 z"
           id="path6956"
           inkscape:connector-curvature="0" />
        <path
           style="fill:#aa0000;fill-opacity:1;stroke:none"
           d="m 1920.7188,366.4375 c -4.898,0 -8.8438,3.98117 -8.8438,8.875 0,4.89383 3.9458,8.84375 8.8438,8.84375 4.8931,0 8.875,-3.94992 8.875,-8.84375 0,-4.89383 -3.9819,-8.875 -8.875,-8.875 z"
           id="path6954"
           inkscape:connector-curvature="0" />
        <path
           style="fill:#aa0000;fill-opacity:1;stroke:none"
           d="m 1986.6562,367.78125 c -1.5389,0 -2.9857,0.47786 -4.1562,1.3125 -0.4688,0.14441 -0.8733,0.49022 -1.0625,0.9375 -1.2046,1.28093 -1.9375,3.01123 -1.9375,4.90625 0,3.94912 3.2115,7.15625 7.1562,7.15625 3.9493,0 7.1563,-3.20713 7.1563,-7.15625 0,-3.94912 -3.207,-7.15625 -7.1563,-7.15625 z"
           id="path6952"
           inkscape:connector-curvature="0" />
        <path
           style="fill:#aa0000;fill-opacity:1;stroke:none"
           d="m 2203.75,372.03125 c -1.5157,0 -2.75,1.20304 -2.75,2.71875 0,1.51571 1.2343,2.75 2.75,2.75 1.5157,0 2.75,-1.23429 2.75,-2.75 0,-1.51571 -1.2343,-2.71875 -2.75,-2.71875 z"
           id="path6950"
           inkscape:connector-curvature="0" />
        <path
           style="fill:#aa0000;fill-opacity:1;stroke:none"
           d="m 2063.4375,379.75 c -2.1606,0 -3.9378,1.57258 -4.3125,3.625 -1.3153,-1.26908 -3.0908,-2.0625 -5.0625,-2.0625 -0.9749,0 -1.8995,0.18492 -2.75,0.53125 -0.6655,-0.37088 -1.4342,-0.59375 -2.25,-0.59375 -2.5538,0 -4.625,2.07116 -4.625,4.625 0,1.7634 0.9855,3.2823 2.4375,4.0625 0.6199,3.40975 3.5989,6 7.1875,6 4.038,0 7.3125,-3.2745 7.3125,-7.3125 0,-0.19989 -0.016,-0.39791 -0.031,-0.59375 0.6221,0.33681 1.3362,0.53125 2.0937,0.53125 2.4325,0 4.4063,-1.97378 4.4063,-4.40625 0,-2.43247 -1.9738,-4.40625 -4.4063,-4.40625 z"
           id="path6948"
           inkscape:connector-curvature="0" />
        <path
           style="fill:#aa0000;fill-opacity:1;stroke:none"
           d="m 2196.6562,383.71875 c -3.5088,0 -6.375,2.83477 -6.375,6.34375 0,3.50898 2.8662,6.375 6.375,6.375 3.5092,0 6.3438,-2.86602 6.3438,-6.375 0,-3.50898 -2.8346,-6.34375 -6.3438,-6.34375 z"
           id="path6946"
           inkscape:connector-curvature="0" />
        <path
           style="fill:#aa0000;fill-opacity:1;stroke:none"
           d="m 2003.0938,384.1875 c -1.2111,0 -2.1876,0.97761 -2.1876,2.1875 0,1.20989 0.9765,2.21875 2.1876,2.21875 1.2092,0 2.1874,-1.00886 2.1874,-2.21875 0,-1.20989 -0.9782,-2.1875 -2.1874,-2.1875 z"
           id="path6944"
           inkscape:connector-curvature="0" />
        <path
           style="fill:#aa0000;fill-opacity:1;stroke:none"
           d="m 1807.9062,385.15625 c -3.7101,0 -6.7187,3.00657 -6.7187,6.71875 0,3.71218 3.0086,6.71875 6.7187,6.71875 3.7129,0 6.7188,-3.00657 6.7188,-6.71875 0,-3.71218 -3.0059,-6.71875 -6.7188,-6.71875 z"
           id="path6942"
           inkscape:connector-curvature="0" />
        <path
           style="fill:#aa0000;fill-opacity:1;stroke:none"
           d="m 2124.6562,386.1875 c -3.2698,0 -5.9374,2.66704 -5.9374,5.9375 0,3.27046 2.6676,5.90625 5.9374,5.90625 3.2709,0 5.9063,-2.63579 5.9063,-5.90625 0,-3.27046 -2.6354,-5.9375 -5.9063,-5.9375 z"
           id="path6940"
           inkscape:connector-curvature="0" />
        <path
           style="fill:#aa0000;fill-opacity:1;stroke:none"
           d="m 1929.5312,387.40625 c -1.8043,0 -3.2812,1.47509 -3.2812,3.28125 0,1.77455 1.425,3.23124 3.1875,3.28125 0.6274,0.63517 1.5095,1.03125 2.4687,1.03125 1.9194,0 3.4688,-1.58137 3.4688,-3.5 0,-1.91863 -1.5494,-3.46875 -3.4688,-3.46875 -0.1413,0 -0.2692,0.0149 -0.4062,0.0312 -0.5457,-0.40834 -1.2319,-0.65625 -1.9688,-0.65625 z"
           id="path6938"
           inkscape:connector-curvature="0" />
        <path
           style="fill:#aa0000;fill-opacity:1;stroke:none"
           d="m 1994.25,390 c -3.3163,0 -6,2.68371 -6,6 0,3.31629 2.6837,6.03125 6,6.03125 3.3163,0 6,-2.71496 6,-6.03125 0,-3.31629 -2.6837,-6 -6,-6 z"
           id="path6936"
           inkscape:connector-curvature="0" />
        <path
           style="fill:#aa0000;fill-opacity:1;stroke:none"
           d="m 1905.0625,392.15625 c -2.7261,0 -4.9375,2.21141 -4.9375,4.9375 0,2.72609 2.2114,4.9375 4.9375,4.9375 2.7261,0 4.9375,-2.21141 4.9375,-4.9375 0,-2.72609 -2.2114,-4.9375 -4.9375,-4.9375 z"
           id="path6934"
           inkscape:connector-curvature="0" />
        <path
           style="fill:#aa0000;fill-opacity:1;stroke:none"
           d="m 1829.5625,395.3125 c -3.8493,0 -6.9687,3.11947 -6.9687,6.96875 0,3.84928 3.1194,6.96875 6.9687,6.96875 3.8493,0 7,-3.11947 7,-6.96875 0,-3.84928 -3.1507,-6.96875 -7,-6.96875 z"
           id="path6932"
           inkscape:connector-curvature="0" />
        <path
           style="fill:#aa0000;fill-opacity:1;stroke:none"
           d="m 2023.0938,396.3125 c -4.3832,0 -7.9376,3.5576 -7.9376,7.9375 0,4.3799 3.5544,7.90625 7.9376,7.90625 4.3795,0 7.9374,-3.52635 7.9374,-7.90625 0,-4.3799 -3.5579,-7.9375 -7.9374,-7.9375 z"
           id="path6930"
           inkscape:connector-curvature="0" />
        <path
           style="fill:#aa0000;fill-opacity:1;stroke:none"
           d="m 2100.9062,396.96875 c -4.0605,0 -7.3437,3.31445 -7.3437,7.375 0,4.06055 3.2832,7.34375 7.3437,7.34375 4.0607,0 7.375,-3.2832 7.375,-7.34375 0,-4.06055 -3.3143,-7.375 -7.375,-7.375 z"
           id="path6928"
           inkscape:connector-curvature="0" />
        <path
           style="fill:#aa0000;fill-opacity:1;stroke:none"
           d="m 2007.7188,399.9375 c -2.5553,0 -4.5938,2.07795 -4.5938,4.625 0,2.54705 2.0385,4.59375 4.5938,4.59375 2.5389,0 4.625,-2.0467 4.625,-4.59375 0,-2.54705 -2.0861,-4.625 -4.625,-4.625 z"
           id="path6926"
           inkscape:connector-curvature="0" />
        <path
           style="fill:#aa0000;fill-opacity:1;stroke:none"
           d="m 2053.0625,403.1875 c -4.425,0 -8,3.60625 -8,8.03125 0,4.425 3.575,8 8,8 4.425,0 8.0313,-3.575 8.0313,-8 0,-4.425 -3.6063,-8.03125 -8.0313,-8.03125 z"
           id="path6924"
           inkscape:connector-curvature="0" />
        <path
           style="fill:#aa0000;fill-opacity:1;stroke:none"
           d="m 1819.375,405.6875 c -1.532,0 -2.7812,1.24928 -2.7812,2.78125 0,1.53197 1.2492,2.75 2.7812,2.75 1.532,0 2.75,-1.21803 2.75,-2.75 0,-1.53197 -1.218,-2.78125 -2.75,-2.78125 z"
           id="path6922"
           inkscape:connector-curvature="0" />
        <path
           style="fill:#aa0000;fill-opacity:1;stroke:none"
           d="m 2130.0625,407.75 c -1.2909,0 -2.3437,1.05284 -2.3437,2.34375 0,1.29091 1.0528,2.34375 2.3437,2.34375 1.2909,0 2.3437,-1.05284 2.3437,-2.34375 0,-1.29091 -1.0528,-2.34375 -2.3437,-2.34375 z"
           id="path6920"
           inkscape:connector-curvature="0" />
        <path
           style="fill:#aa0000;fill-opacity:1;stroke:none"
           d="m 1895.9688,410.25 c -0.9937,0 -1.7813,0.81959 -1.7813,1.8125 0,0.99291 0.7876,1.78125 1.7813,1.78125 0.9918,0 1.8124,-0.78834 1.8124,-1.78125 0,-0.99291 -0.8206,-1.8125 -1.8124,-1.8125 z"
           id="path6918"
           inkscape:connector-curvature="0" />
        <path
           style="fill:#aa0000;fill-opacity:1;stroke:none"
           d="m 2167.8125,415.15625 c -0.8997,0 -1.6563,0.75655 -1.6563,1.65625 0,0.8997 0.7566,1.625 1.6563,1.625 0.8997,0 1.625,-0.7253 1.625,-1.625 0,-0.8997 -0.7253,-1.65625 -1.625,-1.65625 z"
           id="path6916"
           inkscape:connector-curvature="0" />
        <path
           style="fill:#aa0000;fill-opacity:1;stroke:none"
           d="m 2074.9688,415.18745 c -3.5528,0 -6.4376,2.88476 -6.4376,6.4375 0,1.735 0.6957,3.28044 1.8126,4.4375 0.037,0.0381 0.056,0.0878 0.094,0.125 1.0329,1.43312 2.7208,2.375 4.625,2.375 2.2169,0 4.1026,-1.27785 5.0313,-3.125 0.7934,-1.06982 1.2812,-2.37808 1.2812,-3.8125 0,-3.55274 -2.8538,-6.4375 -6.4062,-6.4375 z"
           id="path6914"
           inkscape:connector-curvature="0" />
        <path
           style="fill:#aa0000;fill-opacity:1;stroke:none"
           d="m 2099.125,415.9062 c -1.0264,0 -1.875,0.8173 -1.875,1.84375 0,1.02645 0.8486,1.875 1.875,1.875 1.0264,0 1.8438,-0.84855 1.8438,-1.875 0,-1.02645 -0.8174,-1.84375 -1.8438,-1.84375 z"
           id="path6912"
           inkscape:connector-curvature="0" />
        <path
           style="fill:#aa0000;fill-opacity:1;stroke:none"
           d="m 1924.625,416.0312 c -1.0441,0 -1.9062,0.86214 -1.9062,1.90625 0,1.04411 0.8621,1.875 1.9062,1.875 1.0441,0 1.875,-0.83089 1.875,-1.875 0,-1.04411 -0.8309,-1.90625 -1.875,-1.90625 z"
           id="path6910"
           inkscape:connector-curvature="0" />
        <path
           style="fill:#aa0000;fill-opacity:1;stroke:none"
           d="m 2272.3438,416.7187 c -1.4901,0 -2.6876,1.19755 -2.6876,2.6875 0,1.48995 1.1975,2.71875 2.6876,2.71875 1.4899,0 2.7187,-1.2288 2.7187,-2.71875 0,-1.48995 -1.2288,-2.6875 -2.7187,-2.6875 z"
           id="path6908"
           inkscape:connector-curvature="0" />
        <path
           style="fill:#aa0000;fill-opacity:1;stroke:none"
           d="m 2264.1562,422.2187 c -3.8539,0 -6.9687,3.11472 -6.9687,6.96875 0,3.85403 3.1148,6.96875 6.9687,6.96875 3.8543,0 7,-3.11472 7,-6.96875 0,-3.85403 -3.1457,-6.96875 -7,-6.96875 z"
           id="path6906"
           inkscape:connector-curvature="0" />
        <path
           style="fill:#aa0000;fill-opacity:1;stroke:none"
           d="m 2102.0938,422.37495 c -2.9739,0 -5.4063,2.40113 -5.4063,5.375 0,2.97387 2.4324,5.40625 5.4063,5.40625 2.9737,0 5.375,-2.43238 5.375,-5.40625 0,-2.97387 -2.4013,-5.375 -5.375,-5.375 z"
           id="path6904"
           inkscape:connector-curvature="0" />
        <path
           style="fill:#aa0000;fill-opacity:1;stroke:none"
           d="m 2169.8125,428.31245 c -4.4805,0 -8.0937,3.61326 -8.0937,8.09375 0,4.26049 3.2671,7.76508 7.4403,8.09897 0.2155,0.0172 -3.813,5.96019 0.6534,6.05158 4.7992,0.0982 0.4651,-6.03546 0.6938,-6.05489 4.157,-0.35311 7.4312,-3.84886 7.4312,-8.09566 0,-4.48049 -3.6445,-8.09375 -8.125,-8.09375 z"
           id="path6902"
           inkscape:connector-curvature="0"
           sodipodi:nodetypes="sssssss" />
        <path
           style="fill:#aa0000;fill-opacity:1;stroke:none"
           d="m 2048.4688,429.68745 c -5.0551,0 -9.1563,4.1079 -9.1563,9.15625 0,5.04835 4.1012,9.125 9.1563,9.125 0.5868,0 1.163,-0.051 1.7187,-0.15625 1.5104,2.19656 4.0703,3.625 6.9375,3.625 4.627,0 8.375,-3.74798 8.375,-8.375 0,-4.62702 -3.748,-8.375 -8.375,-8.375 -0.1654,0 -0.337,0.0218 -0.5,0.0312 -1.5005,-2.98739 -4.5874,-5.03125 -8.1562,-5.03125 z"
           id="path6900"
           inkscape:connector-curvature="0" />
        <path
           style="fill:#aa0000;fill-opacity:1;stroke:none"
           d="m 1796.3438,430.49995 c -4.0675,0 -7.375,3.31106 -7.375,7.375 0,2.57479 1.3277,4.83483 3.3351,6.1454 0.1504,0.0982 0.8239,7.57431 0.3743,10.62404 -0.4496,3.04973 -0.5233,3.52422 0.2018,3.55674 0.9814,0.044 0.5762,-1.18204 0.3573,-3.53552 -0.2189,-2.35349 0.3404,-9.97808 0.5207,-9.91087 0.805,0.30001 1.6764,0.46396 2.5858,0.46396 0.2553,0 0.1515,7.79845 0.9589,13.47752 0.4328,3.04478 -1.4514,5.4207 0.4885,5.4207 2.1534,0 0.5186,-2.20556 0.1534,-5.22762 -0.6811,-5.63635 0.5953,-13.99714 0.8653,-14.09298 2.846,-1.01056 4.8776,-3.72315 4.8776,-6.92137 0,-4.06394 -3.2803,-7.375 -7.3437,-7.375 z"
           id="path6898"
           inkscape:connector-curvature="0"
           sodipodi:nodetypes="ssszszssssssss" />
        <path
           style="fill:#aa0000;fill-opacity:1;stroke:none"
           d="m 1922.4062,431.9062 c -3.6063,0 -6.5312,2.92174 -6.5312,6.53125 0,3.60951 2.9249,6.53125 6.5312,6.53125 3.6128,0 6.5313,-2.92174 6.5313,-6.53125 0,-3.60951 -2.9185,-6.53125 -6.5313,-6.53125 z"
           id="path6896"
           inkscape:connector-curvature="0" />
        <path
           style="fill:#aa0000;fill-opacity:1;stroke:none"
           d="m 2010.0625,441.7812 c -1.3079,0 -2.375,1.03589 -2.375,2.34375 0,1.30786 1.0671,2.375 2.375,2.375 1.3079,0 2.3437,-1.06714 2.3437,-2.375 0,-1.30786 -1.0358,-2.34375 -2.3437,-2.34375 z"
           id="path6894"
           inkscape:connector-curvature="0" />
        <path
           style="fill:#aa0000;fill-opacity:1;stroke:none"
           d="m 2217.4375,445.8437 c -2.1856,0 -3.9687,1.75189 -3.9687,3.9375 0,2.18561 1.7831,3.96875 3.9687,3.96875 2.1856,0 3.9687,-1.78314 3.9687,-3.96875 0,-2.18561 -1.7831,-3.9375 -3.9687,-3.9375 z"
           id="path6892"
           inkscape:connector-curvature="0" />
        <path
           style="fill:#aa0000;fill-opacity:1;stroke:none"
           d="m 1969.2812,458.25 c -3.4103,0 -6.1874,2.77679 -6.1874,6.1875 0,3.41071 2.7771,6.1875 6.1874,6.1875 3.4149,0 6.1563,-2.77679 6.1563,-6.1875 0,-3.41071 -2.7414,-6.1875 -6.1563,-6.1875 z"
           id="path6890"
           inkscape:connector-curvature="0" />
        <path
           style="fill:#aa0000;fill-opacity:1;stroke:none"
           d="m 2018.4062,474.375 c -1.923,0 -3.4687,1.57656 -3.4687,3.5 0,1.92344 1.5457,3.46875 3.4687,3.46875 1.9303,0 3.5,-1.54531 3.5,-3.46875 0,-1.92344 -1.5697,-3.5 -3.5,-3.5 z"
           id="path6888"
           inkscape:connector-curvature="0" />
        <path
           style="fill:#aa0000;fill-opacity:1;stroke:none"
           d="m 1980.75,478.25 c -0.9254,0 -1.6562,0.76209 -1.6562,1.6875 0,0.92541 0.7308,1.6875 1.6562,1.6875 0.9254,0 1.6875,-0.76209 1.6875,-1.6875 0,-0.92541 -0.7621,-1.6875 -1.6875,-1.6875 z"
           id="path6886"
           inkscape:connector-curvature="0" />
        <path
           style="fill:#aa0000;fill-opacity:1;stroke:none"
           d="m 2057.0625,484.25 c -2.84,0 -5.1563,2.31628 -5.1563,5.15625 0,2.83997 2.3163,5.125 5.1563,5.125 2.84,0 5.125,-2.28503 5.125,-5.125 0,-2.83997 -2.285,-5.15625 -5.125,-5.15625 z"
           id="path6884"
           inkscape:connector-curvature="0" />
        <path
           style="fill:#aa0000;fill-opacity:1;stroke:none"
           d="m 2037.4062,493.96875 c -4.9601,0 -9,4.03398 -9,9 0,4.28862 3.0138,7.88236 7.0313,8.78125 -3.9543,0.46753 -7.0313,3.8268 -7.0313,7.90625 0,0.33462 0.053,0.67525 0.094,1 -1.2838,-0.96341 -2.8646,-1.53125 -4.5938,-1.53125 -4.2418,0 -7.6874,3.44343 -7.6874,7.6875 0,4.24407 3.4456,7.6875 7.6874,7.6875 1.5,0 2.8796,-0.4445 4.0626,-1.1875 1.0498,1.01027 2.4555,1.65625 4.0312,1.65625 3.2328,0 5.8438,-2.61095 5.8438,-5.84375 0,-0.55029 -0.077,-1.08884 -0.2188,-1.59375 3.8012,-0.60422 6.7188,-3.90449 6.7188,-7.875 0,-3.75055 -2.6025,-6.90348 -6.0938,-7.75 4.564,-0.43155 8.1562,-4.26055 8.1562,-8.9375 0,-4.96602 -4.0335,-9 -9,-9 z"
           id="path6882"
           inkscape:connector-curvature="0" />
        <path
           style="fill:#aa0000;fill-opacity:1;stroke:none"
           d="m 2009.9688,501.875 c -2.712,0 -4.9063,2.19484 -4.9063,4.90625 0,2.71141 2.1943,4.90625 4.9063,4.90625 2.7101,0 4.9062,-2.19484 4.9062,-4.90625 0,-2.71141 -2.1961,-4.90625 -4.9062,-4.90625 z"
           id="path6880"
           inkscape:connector-curvature="0" />
        <path
           style="fill:#aa0000;fill-opacity:1;stroke:none"
           d="m 2043.2812,525.09375 c -0.8967,0 -1.625,0.7276 -1.625,1.625 0,0.8974 0.7283,1.625 1.625,1.625 0.8986,0 1.625,-0.7276 1.625,-1.625 0,-0.8974 -0.7264,-1.625 -1.625,-1.625 z"
           id="path6878"
           inkscape:connector-curvature="0" />
        <path
           style="fill:#aa0000;fill-opacity:1;stroke:none"
           d="m 2037.6875,543.84375 c -1.7921,0 -3.25,1.42667 -3.25,3.21875 0,1.79208 1.4579,3.25 3.25,3.25 1.7921,0 3.25,-1.45792 3.25,-3.25 0,-1.79208 -1.4579,-3.21875 -3.25,-3.21875 z"
           id="path6876"
           inkscape:connector-curvature="0" />
        <path
           style="fill:#aa0000;fill-opacity:1;stroke:none"
           d="m 2006.5312,561.28125 c -1.0217,0 -1.8437,0.82193 -1.8437,1.84375 0,1.02182 0.822,1.875 1.8437,1.875 1.0236,0 1.8438,-0.85318 1.8438,-1.875 0,-1.02182 -0.8202,-1.84375 -1.8438,-1.84375 z"
           id="path6874"
           inkscape:connector-curvature="0" />
        <path
           style="fill:#aa0000;fill-opacity:1;stroke:none"
           d="m 2003.0938,577.34375 c -3.9493,0 -7.125,3.20698 -7.125,7.15625 0,3.94927 3.1757,7.15625 7.125,7.15625 3.9447,0 7.1562,-3.20698 7.1562,-7.15625 0,-3.94927 -3.2115,-7.15625 -7.1562,-7.15625 z"
           id="path6872"
           inkscape:connector-curvature="0" />
        <path
           style="fill:#aa0000;fill-opacity:1;stroke:none"
           d="m 2022.3438,588.03125 c -5.0127,0 -9.0938,4.05061 -9.0938,9.0625 0,5.01189 4.0811,9.0625 9.0938,9.0625 0.2442,0 1.0672,3.01052 0,5.976 -0.3389,0.93804 0.2409,2.22743 1.1387,2.35406 0.7395,0.1043 1.4356,-1.383 0.8371,-2.39129 -1.2118,-2.04167 0.1046,-6.17229 0.3891,-6.24871 3.8614,-1.03723 6.7015,-4.55823 6.7015,-8.75256 0,-5.01189 -4.0552,-9.0625 -9.0624,-9.0625 z"
           id="path6550"
           inkscape:connector-curvature="0"
           sodipodi:nodetypes="sssssssss" />
        <path
           style="fill:#ff8080;fill-opacity:1;stroke:none"
           d="m 1914.9688,153.15625 c -3.6332,0 -6.5626,2.93382 -6.5626,6.5625 0,3.62868 2.9294,6.5625 6.5626,6.5625 3.6286,0 6.5624,-2.93382 6.5624,-6.5625 0,-3.62868 -2.9338,-6.5625 -6.5624,-6.5625 z m 245.5937,6.375 c -1.4418,0 -2.625,1.18319 -2.625,2.625 0,1.44181 1.1832,2.59375 2.625,2.59375 1.4418,0 2.5937,-1.15194 2.5937,-2.59375 0,-1.44181 -1.1519,-2.625 -2.5937,-2.625 z m -33.7187,33.40625 c -1.1562,0 -2.0938,0.9376 -2.0938,2.09375 0,1.15615 0.9376,2.09375 2.0938,2.09375 1.1556,0 2.0937,-0.9376 2.0937,-2.09375 0,-1.15615 -0.9381,-2.09375 -2.0937,-2.09375 z m 34.625,4.8125 c -3.5834,0 -6.5,2.88537 -6.5,6.46875 0,0.20268 0.013,0.39574 0.031,0.59375 -1.111,-0.92963 -2.5318,-1.5 -4.0938,-1.5 -0.8487,0 -1.6648,0.16847 -2.4062,0.46875 -0.8708,-2.56311 -3.2967,-4.40625 -6.1562,-4.40625 -0.7686,0 -1.5035,0.1308 -2.1876,0.375 -0.2577,-0.0606 -0.5363,-0.125 -0.8124,-0.125 -1.9305,0 -3.5,1.56969 -3.5,3.5 0,0.39153 0.1,0.77355 0.2187,1.125 -0.1341,0.52055 -0.2187,1.06225 -0.2187,1.625 0,3.2335 2.347,5.90164 5.4374,6.40625 0.5717,1.24759 1.8132,2.125 3.2813,2.125 0.5816,0 1.1047,-0.1654 1.5937,-0.40625 1.1713,1.29737 2.8646,2.125 4.75,2.125 3.5346,0 6.4063,-2.872 6.4063,-6.40625 0,-0.18941 -0.015,-0.37728 -0.031,-0.5625 1.1342,0.9622 2.5878,1.5625 4.1876,1.5625 3.5832,0 6.5,-2.91662 6.5,-6.5 0,-3.58338 -2.9168,-6.46875 -6.5,-6.46875 z m -255.625,4.5625 c -0.8687,0 -1.5626,0.72509 -1.5626,1.59375 0,0.86866 0.6939,1.5625 1.5626,1.5625 0.8668,0 1.5624,-0.69384 1.5624,-1.5625 0,-0.86866 -0.6956,-1.59375 -1.5624,-1.59375 z m -11.25,0.5625 c -2.3746,0 -4.2813,1.9067 -4.2813,4.28125 0,2.37455 1.9067,4.3125 4.2813,4.3125 2.3745,0 4.3124,-1.93795 4.3124,-4.3125 0,-2.37455 -1.9379,-4.28125 -4.3124,-4.28125 z m 9.4374,3.71875 c -3.9481,0 -7.1562,3.20804 -7.1562,7.15625 0,3.94821 3.2081,7.15625 7.1562,7.15625 3.9484,0 7.125,-3.20804 7.125,-7.15625 0,-3.94821 -3.1766,-7.15625 -7.125,-7.15625 z m 17.3438,5.03125 c -3.5005,0 -6.3438,2.84327 -6.3438,6.34375 0,3.50048 2.8433,6.34375 6.3438,6.34375 3.5005,0 6.3438,-2.84327 6.3438,-6.34375 0,-3.50048 -2.8433,-6.34375 -6.3438,-6.34375 z m 163.0938,0.8125 c -1.598,0 -2.9063,1.27705 -2.9063,2.875 0,1.59795 1.3083,2.90625 2.9063,2.90625 1.5978,0 2.875,-1.3083 2.875,-2.90625 0,-1.59795 -1.2772,-2.875 -2.875,-2.875 z m 7.7812,1.1875 c -2.5871,0 -4.6875,2.10039 -4.6875,4.6875 0,2.58711 2.1004,4.65625 4.6875,4.65625 2.5871,0 4.6875,-2.06914 4.6875,-4.65625 0,-2.58711 -2.1004,-4.6875 -4.6875,-4.6875 z m 11.0625,3.65625 c -1.5551,0 -2.8125,1.25743 -2.8125,2.8125 0,1.55507 1.2574,2.8125 2.8125,2.8125 1.5551,0 2.8125,-1.25743 2.8125,-2.8125 0,-1.55507 -1.2574,-2.8125 -2.8125,-2.8125 z m -114.75,4.09375 c -3.58,0 -6.5,2.88878 -6.5,6.46875 0,3.57997 2.92,6.5 6.5,6.5 3.58,0 6.4687,-2.92003 6.4687,-6.5 0,-3.57997 -2.8887,-6.46875 -6.4687,-6.46875 z m -17.4063,0.9375 c -1.7101,0 -3.0937,1.41096 -3.0937,3.125 0,1.71404 1.3836,3.09375 3.0937,3.09375 1.7147,0 3.125,-1.37971 3.125,-3.09375 0,-1.71404 -1.4103,-3.125 -3.125,-3.125 z m 98.875,6.5 c -2.2743,0 -4.125,1.85045 -4.125,4.125 0,2.27455 1.8507,4.09375 4.125,4.09375 2.2747,0 4.0938,-1.8192 4.0938,-4.09375 0,-2.27455 -1.8191,-4.125 -4.0938,-4.125 z m -143.9062,2.5625 c -1.5998,0 -2.9062,1.3064 -2.9062,2.90625 0,1.59985 1.3064,2.875 2.9062,2.875 1.5998,0 2.9062,-1.27515 2.9062,-2.875 0,-1.59985 -1.3064,-2.90625 -2.9062,-2.90625 z m 208.6562,0.34375 c -2.3631,0 -4.2812,1.91791 -4.2812,4.28125 0,2.36334 1.9181,4.28125 4.2812,4.28125 2.3635,0 4.2813,-1.91791 4.2813,-4.28125 0,-2.36334 -1.9178,-4.28125 -4.2813,-4.28125 z m -231.5,2.1875 c -2.6232,0 -4.75,2.12652 -4.75,4.75 0,2.62348 2.1268,4.75 4.75,4.75 2.6237,0 4.75,-2.12652 4.75,-4.75 0,-2.62348 -2.1263,-4.75 -4.75,-4.75 z m 102.4063,6.15625 c -3.7181,0 -6.7187,3.03186 -6.7187,6.75 0,3.71814 3.0006,6.71875 6.7187,6.71875 3.7181,0 6.75,-3.00061 6.75,-6.71875 0,-3.71814 -3.0319,-6.75 -6.75,-6.75 z m -61.0937,5.90625 c -1.1966,0 -2.1876,0.96027 -2.1876,2.15625 0,1.19598 0.991,2.1875 2.1876,2.1875 1.1947,0 2.1562,-0.99152 2.1562,-2.1875 0,-1.19598 -0.9615,-2.15625 -2.1562,-2.15625 z m 132,7.375 c -1.1497,0 -2.0938,0.91288 -2.0938,2.0625 0,1.14962 0.9441,2.09375 2.0938,2.09375 1.1493,0 2.0624,-0.94413 2.0624,-2.09375 0,-1.14962 -0.9131,-2.0625 -2.0624,-2.0625 z m -124.625,0.4375 c -3.2095,0 -5.8126,2.60359 -5.8126,5.8125 0,3.20891 2.6031,5.78125 5.8126,5.78125 3.2084,0 5.8124,-2.57234 5.8124,-5.78125 0,-3.20891 -2.604,-5.8125 -5.8124,-5.8125 z m 181.2187,1.90625 c -3.133,0 -5.6875,2.55448 -5.6875,5.6875 0,3.13302 2.5545,5.65625 5.6875,5.65625 3.133,0 5.6563,-2.52323 5.6563,-5.65625 0,-3.13302 -2.5233,-5.6875 -5.6563,-5.6875 z m -207.0313,2.40625 c -3.1559,0 -5.7187,2.56239 -5.7187,5.71875 0,3.15636 2.5628,5.71875 5.7187,5.71875 3.1568,0 5.7188,-2.56239 5.7188,-5.71875 0,-3.15636 -2.562,-5.71875 -5.7188,-5.71875 z M 2001.5,258.625 c -3.9761,0 -7.1875,3.24268 -7.1875,7.21875 0,1.05863 0.2414,2.06471 0.6563,2.96875 -0.3053,0.61374 -0.4688,1.30189 -0.4688,2.03125 0,0.0538 0.029,0.10288 0.031,0.15625 -0.1014,-0.008 -0.211,-0.0312 -0.3124,-0.0312 -2.2736,0 -4.125,1.82427 -4.125,4.09375 0,2.26948 1.8514,4.125 4.125,4.125 2.1639,0 3.9048,-1.68741 4.0624,-3.8125 0.2736,0.0503 0.5558,0.0937 0.8438,0.0937 1.8552,0 3.4483,-1.11225 4.1875,-2.6875 3.1009,-0.80239 5.4063,-3.58897 5.4063,-6.9375 0,-3.97607 -3.2427,-7.21875 -7.2188,-7.21875 z m 47.0312,7.1875 c -3.5335,0 -6.4062,2.87238 -6.4062,6.40625 0,2.68488 1.6557,4.95674 4,5.90625 0.7936,1.56819 2.4053,2.65625 4.2812,2.65625 2.6562,0 4.8126,-2.15644 4.8126,-4.8125 0,-0.77976 -0.2015,-1.50453 -0.5313,-2.15625 0.1321,-0.51221 0.2187,-1.04028 0.2187,-1.59375 0,-3.53387 -2.8411,-6.40625 -6.375,-6.40625 z m -29.9374,0.21875 c -2.2563,0 -4.0938,1.84321 -4.0938,4.09375 0,2.25054 1.8375,4.0625 4.0938,4.0625 2.25,0 4.0624,-1.81196 4.0624,-4.0625 0,-2.25054 -1.8124,-4.09375 -4.0624,-4.09375 z m -101.2188,6.65625 c -3.7909,0 -6.8438,3.05282 -6.8438,6.84375 0,3.79093 3.0529,6.875 6.8438,6.875 3.7909,0 6.875,-3.08407 6.875,-6.875 0,-3.79093 -3.0841,-6.84375 -6.875,-6.84375 z m 102.3438,1.75 c -3.4149,0 -6.1876,2.77782 -6.1876,6.1875 0,3.40968 2.7727,6.1875 6.1876,6.1875 3.4094,0 6.1874,-2.77782 6.1874,-6.1875 0,-3.40968 -2.778,-6.1875 -6.1874,-6.1875 z m 96.3124,4 c -0.7844,0 -1.4374,0.62158 -1.4374,1.40625 0,0.78467 0.653,1.4375 1.4374,1.4375 0.7848,0 1.4063,-0.65283 1.4063,-1.4375 0,-0.78467 -0.6215,-1.40625 -1.4063,-1.40625 z m 14.5938,1.6875 c -3.0984,0 -5.625,2.52661 -5.625,5.625 0,3.09839 2.5266,5.59375 5.625,5.59375 3.0984,0 5.5938,-2.49536 5.5938,-5.59375 0,-3.09839 -2.4954,-5.625 -5.5938,-5.625 z m -177.1562,5.34375 c -0.7002,0 -1.2813,0.58123 -1.2813,1.28125 0,0.70002 0.5811,1.25 1.2813,1.25 0.6994,0 1.25,-0.54998 1.25,-1.25 0,-0.70002 -0.5506,-1.28125 -1.25,-1.28125 z m 161.375,3.0625 c -1.0854,0 -1.9376,0.88348 -1.9376,1.96875 0,1.08527 0.8522,1.96875 1.9376,1.96875 1.085,0 1.9687,-0.88348 1.9687,-1.96875 0,-1.08527 -0.8837,-1.96875 -1.9687,-1.96875 z m -46.5626,2.78125 c -0.8278,0 -1.5,0.67153 -1.5,1.5 0,0.82847 0.6722,1.5 1.5,1.5 0.8289,0 1.5,-0.67153 1.5,-1.5 0,-0.82847 -0.6711,-1.5 -1.5,-1.5 z m 18.5626,2.21875 c -1.3338,0 -2.4063,1.07254 -2.4063,2.40625 0,1.33371 1.0725,2.4375 2.4063,2.4375 1.3332,0 2.4062,-1.10379 2.4062,-2.4375 0,-1.33371 -1.073,-2.40625 -2.4062,-2.40625 z m -102.9688,0.28125 c -2.2266,0 -4.0312,1.80464 -4.0312,4.03125 0,2.22661 1.8046,4.03125 4.0312,4.03125 2.2266,0 4.0312,-1.80464 4.0312,-4.03125 0,-2.22661 -1.8046,-4.03125 -4.0312,-4.03125 z m 38.8438,0.96875 c -2.8895,0 -5.25,2.32926 -5.25,5.21875 0,2.88949 2.3605,5.25 5.25,5.25 2.8838,0 5.2187,-2.36051 5.2187,-5.25 0,-2.88949 -2.3349,-5.21875 -5.2187,-5.21875 z m 106.2187,0.59375 c -2.7909,0 -5.0625,2.27158 -5.0625,5.0625 0,2.79092 2.2716,5.03125 5.0625,5.03125 2.7909,0 5.0625,-2.24033 5.0625,-5.03125 0,-2.79092 -2.2716,-5.0625 -5.0625,-5.0625 z m -124.8125,0.90625 c -3.0919,0 -5.5938,2.50184 -5.5938,5.59375 0,3.09191 2.5019,5.59375 5.5938,5.59375 3.0919,0 5.5938,-2.50184 5.5938,-5.59375 0,-3.09191 -2.5019,-5.59375 -5.5938,-5.59375 z m -37.5312,3.875 c -1.0707,0 -1.9376,0.86717 -1.9376,1.9375 0,0.93654 0.6794,1.72563 1.5626,1.90625 0.1014,0.65379 0.6606,1.15625 1.3437,1.15625 0.7569,0 1.375,-0.61809 1.375,-1.375 0,-0.43343 -0.2112,-0.81136 -0.5313,-1.0625 0.071,-0.20019 0.125,-0.4009 0.125,-0.625 0,-1.07033 -0.8677,-1.9375 -1.9374,-1.9375 z m 117.1874,1.46875 c -3.0967,0 -5.625,2.52825 -5.625,5.625 0,3.09675 2.5283,5.59375 5.625,5.59375 3.0971,0 5.5938,-2.497 5.5938,-5.59375 0,-3.09675 -2.4967,-5.625 -5.5938,-5.625 z m -130.9687,5.75 c -3.5414,0 -6.4063,2.86484 -6.4063,6.40625 0,3.54141 2.8649,6.40625 6.4063,6.40625 3.5414,0 6.4063,-2.86484 6.4063,-6.40625 0,-3.54141 -2.8649,-6.40625 -6.4063,-6.40625 z m 156.7187,10.8125 c -1.0821,0 -1.9374,0.88651 -1.9374,1.96875 0,1.08224 0.8553,1.96875 1.9374,1.96875 1.0825,0 1.9688,-0.88651 1.9688,-1.96875 0,-1.08224 -0.8863,-1.96875 -1.9688,-1.96875 z m -142.4374,9.375 c -3.106,0 -5.625,2.51905 -5.625,5.625 0,3.10595 2.519,5.625 5.625,5.625 3.1014,0 5.625,-2.51905 5.625,-5.625 0,-3.10595 -2.5236,-5.625 -5.625,-5.625 z m 124.0312,6.5 c -3.6766,0 -6.6562,2.97963 -6.6562,6.65625 0,3.67662 2.9796,6.65625 6.6562,6.65625 2.1416,0 4.064,-1.02265 5.2812,-2.59375 0.9656,2.90257 3.7101,5 6.9376,5 4.0268,0 7.2812,-3.25436 7.2812,-7.28125 0,-4.02689 -3.2544,-7.28125 -7.2812,-7.28125 -1.6016,0 -3.0798,0.5263 -4.2813,1.40625 -0.3597,-0.27231 -0.8265,-0.4375 -1.3125,-0.4375 -0.5022,0 -0.9469,0.17972 -1.3125,0.46875 -1.2242,-1.57687 -3.1638,-2.59375 -5.3125,-2.59375 z m 39.7188,3.84375 c -2.1589,0 -3.9063,1.77866 -3.9063,3.9375 0,2.15884 1.7474,3.90625 3.9063,3.90625 2.1585,0 3.9062,-1.74741 3.9062,-3.90625 0,-2.15884 -1.7477,-3.9375 -3.9062,-3.9375 z M 1945.8125,340 c -2.1653,0 -3.9063,1.77221 -3.9063,3.9375 0,2.16529 1.741,3.90625 3.9063,3.90625 0.7354,0 1.4093,-0.21244 2,-0.5625 0.227,0.49669 0.7307,0.875 1.3125,0.875 0.7951,0 1.4375,-0.67366 1.4375,-1.46875 0,-0.66258 -0.4532,-1.20739 -1.0625,-1.375 0.1612,-0.42637 0.25,-0.89171 0.25,-1.375 0,-2.16529 -1.7722,-3.9375 -3.9375,-3.9375 z m 126.6875,5.90625 c -0.889,0 -1.625,0.70476 -1.625,1.59375 0,0.88899 0.736,1.625 1.625,1.625 0.889,0 1.5938,-0.73601 1.5938,-1.625 0,-0.88899 -0.7048,-1.59375 -1.5938,-1.59375 z m 4.4375,5.0625 c -1.6395,0 -2.9687,1.3293 -2.9687,2.96875 0,1.63945 1.3292,2.96875 2.9687,2.96875 1.6395,0 2.9687,-1.3293 2.9687,-2.96875 0,-1.63945 -1.3292,-2.96875 -2.9687,-2.96875 z M 1956.7812,351 c -2.3205,0 -4.2187,1.86609 -4.2187,4.1875 0,2.32141 1.8982,4.21875 4.2187,4.21875 2.3216,0 4.1876,-1.89734 4.1876,-4.21875 0,-2.32141 -1.866,-4.1875 -4.1876,-4.1875 z m -64.375,0.21875 c -2.9601,0 -5.3437,2.4132 -5.3437,5.375 0,2.9618 2.3836,5.34375 5.3437,5.34375 2.962,0 5.375,-2.38195 5.375,-5.34375 0,-2.9618 -2.413,-5.375 -5.375,-5.375 z m 94.8438,4.34375 c -0.9406,0 -1.7188,0.74687 -1.7188,1.6875 0,0.94063 0.7782,1.71875 1.7188,1.71875 0.9406,0 1.6875,-0.77812 1.6875,-1.71875 0,-0.94063 -0.7469,-1.6875 -1.6875,-1.6875 z m -111.5938,2.375 c -1.1639,0 -2.0937,0.96051 -2.0937,2.125 0,1.16449 0.9298,2.09375 2.0937,2.09375 1.1649,0 2.125,-0.92926 2.125,-2.09375 0,-1.16449 -0.9601,-2.125 -2.125,-2.125 z m 280.4688,0.25 c -3.7652,0 -6.8125,3.04729 -6.8125,6.8125 0,3.76521 3.0473,6.8125 6.8125,6.8125 3.7652,0 6.8438,-3.04729 6.8438,-6.8125 0,-3.76521 -3.0786,-6.8125 -6.8438,-6.8125 z M 2062.1875,361 c -1.9379,0 -3.5,1.56211 -3.5,3.5 0,1.93789 1.5621,3.53125 3.5,3.53125 1.9379,0 3.5,-1.59336 3.5,-3.53125 0,-1.93789 -1.5621,-3.5 -3.5,-3.5 z m 74.8437,3.25 c -1.7318,0 -3.1562,1.39316 -3.1562,3.125 0,1.73184 1.4244,3.125 3.1562,3.125 1.732,0 3.125,-1.39316 3.125,-3.125 0,-1.73184 -1.393,-3.125 -3.125,-3.125 z m -239.6874,5.15625 c -3.3828,0 -6.125,2.74883 -6.125,6.125 0,0.50019 0.074,0.97219 0.1874,1.4375 -1.644,1.0842 -2.75,2.94511 -2.75,5.0625 0,3.34832 2.7102,6.0625 6.0626,6.0625 3.3478,0 6.0624,-2.71418 6.0624,-6.0625 0,-0.46245 -0.058,-0.91097 -0.1562,-1.34375 1.6989,-1.08591 2.8438,-2.99043 2.8438,-5.15625 0,-3.37617 -2.7491,-6.125 -6.125,-6.125 z m 76.4374,0.0937 c -2.1483,0 -3.875,1.75687 -3.875,3.90625 0,2.14938 1.7267,3.875 3.875,3.875 2.1495,0 3.9063,-1.72562 3.9063,-3.875 0,-2.14938 -1.7568,-3.90625 -3.9063,-3.90625 z m 99.4688,6.53125 c -1.6145,0 -2.9062,1.32302 -2.9062,2.9375 0,1.61448 1.2917,2.90625 2.9062,2.90625 1.6145,0 2.9375,-1.29177 2.9375,-2.90625 0,-1.61448 -1.323,-2.9375 -2.9375,-2.9375 z m -7.125,6.71875 c -1.2146,0 -2.2188,0.9729 -2.2188,2.1875 0,1.2146 1.0042,2.1875 2.2188,2.1875 1.2146,0 2.1875,-0.9729 2.1875,-2.1875 0,-1.2146 -0.9729,-2.1875 -2.1875,-2.1875 z m 101.375,0.5 c -3.3499,0 -6.0625,2.7126 -6.0625,6.0625 0,2.51243 1.5105,4.67295 3.6875,5.59375 0.8452,0.92123 2.0566,1.5 3.4062,1.5 2.5562,0 4.625,-2.06914 4.625,-4.625 0,-0.0854 -0.027,-0.16574 -0.031,-0.25 0.2762,-0.69367 0.4375,-1.42664 0.4375,-2.21875 0,-3.3499 -2.7126,-6.0625 -6.0625,-6.0625 z m -250.4062,3.4375 c -0.8361,0 -1.5,0.69656 -1.5,1.53125 0,0.83469 0.6639,1.5 1.5,1.5 0.8342,0 1.5312,-0.66531 1.5312,-1.5 0,-0.83469 -0.697,-1.53125 -1.5312,-1.53125 z m 37.2812,1.0625 c -3.5815,0 -6.4688,2.88725 -6.4688,6.46875 0,3.5815 2.8873,6.5 6.4688,6.5 3.5815,0 6.5,-2.9185 6.5,-6.5 0,-3.5815 -2.9185,-6.46875 -6.5,-6.46875 z m 231,2.28125 c -0.7868,0 -1.4062,0.65072 -1.4062,1.4375 0,0.78678 0.6194,1.40625 1.4062,1.40625 0.7868,0 1.4375,-0.61947 1.4375,-1.40625 0,-0.78678 -0.6507,-1.4375 -1.4375,-1.4375 z m -201.9062,0.2188 c -1.7898,0 -3.2188,1.43712 -3.2188,3.21875 0,1.78163 1.429,3.21875 3.2188,3.21875 1.7735,0 3.2187,-1.43712 3.2187,-3.21875 0,-1.78163 -1.4452,-3.21875 -3.2187,-3.21875 z m 79.2187,1.5625 c -0.8936,0 -1.625,0.73138 -1.625,1.625 0,0.89362 0.7314,1.625 1.625,1.625 0.8936,0 1.625,-0.73138 1.625,-1.625 0,-0.89362 -0.7314,-1.625 -1.625,-1.625 z m 12.8437,0.0625 c -3.9825,0 -7.2187,3.2361 -7.2187,7.21875 0,3.98265 3.2362,7.1875 7.2187,7.1875 3.9829,0 7.1876,-3.20485 7.1876,-7.1875 0,-3.98265 -3.2047,-7.21875 -7.1876,-7.21875 z m 121.1563,1.4375 c -3.6592,0 -6.625,2.96582 -6.625,6.625 0,3.65918 2.9658,6.625 6.625,6.625 3.6592,0 6.625,-2.96582 6.625,-6.625 0,-3.65918 -2.9658,-6.625 -6.625,-6.625 z M 1825.5625,395 c -3.6513,0 -6.5937,2.97368 -6.5937,6.625 0,3.65132 2.9424,6.59375 6.5937,6.59375 3.6513,0 6.625,-2.94243 6.625,-6.59375 0,-3.65132 -2.9737,-6.625 -6.625,-6.625 z m 33.4063,2.6875 c -0.9357,0 -1.7188,0.75194 -1.7188,1.6875 0,0.93556 0.7831,1.6875 1.7188,1.6875 0.9293,0 1.6874,-0.75194 1.6874,-1.6875 0,-0.93556 -0.7581,-1.6875 -1.6874,-1.6875 z m 21.625,1.65625 c -3.9674,0 -7.1876,3.22091 -7.1876,7.1875 0,3.96659 3.2202,7.1875 7.1876,7.1875 3.9601,0 7.1562,-3.22091 7.1562,-7.1875 0,-3.96659 -3.1961,-7.1875 -7.1562,-7.1875 z m 55.75,2.78125 c -3.9004,0 -7.0626,3.16276 -7.0626,7.0625 0,2.46212 1.2458,4.64255 3.1563,5.90625 -0.2221,-0.0437 -0.453,-0.0625 -0.6875,-0.0625 -1.9606,0 -3.5312,1.60186 -3.5312,3.5625 0,1.96064 1.5706,3.53125 3.5312,3.53125 1.9606,0 3.5625,-1.57061 3.5625,-3.53125 0,-1.11089 -0.5101,-2.09558 -1.3125,-2.75 0.7351,0.25935 1.5195,0.40625 2.3438,0.40625 3.8976,0 7.0624,-3.16276 7.0624,-7.0625 0,-3.89974 -3.1648,-7.0625 -7.0624,-7.0625 z m -96.0938,2.125 c -1.4114,0 -2.5625,1.11981 -2.5625,2.53125 0,1.41144 1.1511,2.5625 2.5625,2.5625 1.4114,0 2.5312,-1.15106 2.5312,-2.5625 0,-1.41144 -1.1198,-2.53125 -2.5312,-2.53125 z m -7.7812,1.5 c -0.7935,0 -1.4376,0.64426 -1.4376,1.4375 0,0.79324 0.6441,1.4375 1.4376,1.4375 0.7889,0 1.4374,-0.64426 1.4374,-1.4375 0,-0.79324 -0.6485,-1.4375 -1.4374,-1.4375 z m 306.9374,0.6875 c -3.1556,0 -5.7187,2.56264 -5.7187,5.71875 0,3.15611 2.5631,5.71875 5.7187,5.71875 3.1562,0 5.7188,-2.56264 5.7188,-5.71875 0,-3.15611 -2.5626,-5.71875 -5.7188,-5.71875 z m -63.25,1.34375 c -3.5198,0 -6.375,2.855 -6.375,6.375 0,1.32 0.4063,2.54502 1.0938,3.5625 -0.392,-0.0705 -0.7753,-0.125 -1.1875,-0.125 -3.7446,0 -6.7813,3.0367 -6.7813,6.78125 0,3.74455 3.0367,6.78125 6.7813,6.78125 3.7446,0 6.7813,-3.0367 6.7813,-6.78125 0,-1.45888 -0.4665,-2.80019 -1.25,-3.90625 0.3058,0.0451 0.619,0.0625 0.9374,0.0625 3.5202,0 6.375,-2.855 6.375,-6.375 0,-3.52 -2.8548,-6.375 -6.375,-6.375 z m 102.9063,0.3125 c -3.0521,0 -5.5313,2.47918 -5.5313,5.53125 0,3.05207 2.4792,5.53125 5.5313,5.53125 3.0521,0 5.5313,-2.47918 5.5313,-5.53125 0,-3.05207 -2.4792,-5.53125 -5.5313,-5.53125 z m -367.625,0.96875 c -3.2049,0 -5.8125,2.60764 -5.8125,5.8125 0,3.20486 2.6076,5.8125 5.8125,5.8125 3.2049,0 5.7813,-2.60764 5.7813,-5.8125 0,-3.20486 -2.5764,-5.8125 -5.7813,-5.8125 z m 233.1563,1.84375 c -1.8895,0 -3.4063,1.51678 -3.4063,3.40625 0,1.88947 1.5168,3.4375 3.4063,3.4375 1.8822,0 3.4374,-1.54803 3.4374,-3.4375 0,-1.88947 -1.5552,-3.40625 -3.4374,-3.40625 z m -47.875,1.40625 c -2.5236,0 -4.5626,2.04504 -4.5626,4.5625 0,2.49599 2.0075,4.52803 4.5,4.5625 -0.1329,0.35503 -0.2187,0.75423 -0.2187,1.15625 0,1.78404 1.466,3.21875 3.25,3.21875 1.0191,0 1.908,-0.48148 2.5,-1.21875 1.2864,1.37734 3.1196,2.25 5.1563,2.25 3.8978,0 7.0937,-3.18763 7.0937,-7.09375 0,-3.90612 -3.1959,-7.0625 -7.0937,-7.0625 -2.6332,0 -4.9149,1.43646 -6.125,3.5625 -0.3116,-2.21483 -2.2002,-3.9375 -4.5,-3.9375 z m 212.0312,1.59375 c -1.6438,0 -3,1.32492 -3,2.96875 0,1.64383 1.3562,2.96875 3,2.96875 1.6438,0 2.9688,-1.32492 2.9688,-2.96875 0,-1.64383 -1.325,-2.96875 -2.9688,-2.96875 z m -311.5938,0.0312 c -1.6485,0 -3,1.34385 -3,3 0,1.65615 1.3515,3 3,3 1.6638,0 3,-1.34385 3,-3 0,-1.65615 -1.3362,-3 -3,-3 z m 267.5938,2.21875 c -3.54,0 -6.4062,2.86627 -6.4062,6.40625 0,3.53998 2.8662,6.40625 6.4062,6.40625 3.54,0 6.4062,-2.86627 6.4062,-6.40625 0,-3.53998 -2.8662,-6.40625 -6.4062,-6.40625 z m -70.4688,1.21875 c -3.9247,0 -7.125,3.19991 -7.125,7.125 0,3.92509 3.2003,7.09375 7.125,7.09375 3.9251,0 7.0938,-3.16866 7.0938,-7.09375 0,-3.92509 -3.1687,-7.125 -7.0938,-7.125 z M 2215,418.5 c -2.7787,0.28219 -4.9688,2.64683 -4.9688,5.5 0,3.04338 2.4879,5.5 5.5313,5.5 3.0434,0 5.5,-2.45662 5.5,-5.5 0,-3.04338 -2.4566,-5.5 -5.5,-5.5 -0.1902,0 -0.3773,-0.0188 -0.5625,0 z m -18.9688,1.21875 c -1.3197,0 -2.4062,1.08642 -2.4062,2.40625 0,1.31983 1.0865,2.375 2.4062,2.375 1.3199,0 2.375,-1.05517 2.375,-2.375 0,-1.31983 -1.0551,-2.40625 -2.375,-2.40625 z m -381.3124,0.84375 c -1.7899,0 -3.2188,1.46048 -3.2188,3.25 0,1.78952 1.4289,3.25 3.2188,3.25 1.7889,0 3.25,-1.46048 3.25,-3.25 0,-1.78952 -1.4611,-3.25 -3.25,-3.25 z m 440.5,0.4375 c -2.6461,0 -4.7813,2.13517 -4.7813,4.78125 0,2.64608 2.1352,4.8125 4.7813,4.8125 2.6457,0 4.7812,-2.16642 4.7812,-4.8125 0,-2.64608 -2.1355,-4.78125 -4.7812,-4.78125 z m -267.125,17.3125 c -3.6522,0 -6.625,2.97293 -6.625,6.625 0,3.65207 2.9728,6.59375 6.625,6.59375 3.6509,0 6.625,-2.94168 6.625,-6.59375 0,-3.65207 -2.9741,-6.625 -6.625,-6.625 z m 270.4374,0.5 c -1.8451,0 -3.3437,1.4983 -3.3437,3.34375 0,1.84545 1.4986,3.34375 3.3437,3.34375 1.8455,0 3.3438,-1.4983 3.3438,-3.34375 0,-1.84545 -1.4983,-3.34375 -3.3438,-3.34375 z m -10.1562,4.0625 c -1.6678,0 -3.0312,1.3635 -3.0312,3.03125 0,1.66775 1.3634,3.03125 3.0312,3.03125 1.6678,0 3.0312,-1.3635 3.0312,-3.03125 0,-1.66775 -1.3634,-3.03125 -3.0312,-3.03125 z m -276.125,11.40625 c -2.4129,0 -4.375,1.96208 -4.375,4.375 0,2.41292 1.9621,4.34375 4.375,4.34375 2.4129,0 4.375,-1.93083 4.375,-4.34375 0,-2.41292 -1.9621,-4.375 -4.375,-4.375 z m 91.4062,6.46875 c -2.0859,0 -3.7812,1.69506 -3.7812,3.78125 0,2.08619 1.6953,3.75 3.7812,3.75 2.0863,0 3.7813,-1.66381 3.7813,-3.75 0,-2.08619 -1.695,-3.78125 -3.7813,-3.78125 z M 1993.5,473.375 c -2.3594,0 -4.2812,1.89063 -4.2812,4.25 0,2.35937 1.9218,4.28125 4.2812,4.28125 2.3594,0 4.2812,-1.92188 4.2812,-4.28125 0,-2.35937 -1.9218,-4.25 -4.2812,-4.25 z m 52.5625,8.375 c -2.1302,0 -3.8437,1.74476 -3.8437,3.875 0,2.13024 1.7135,3.84375 3.8437,3.84375 2.1302,0 3.8437,-1.71351 3.8437,-3.84375 0,-2.13024 -1.7135,-3.875 -3.8437,-3.875 z m -11.8437,2.5 c -1.529,0 -2.75,1.2219 -2.75,2.75 0,1.5281 1.221,2.78125 2.75,2.78125 1.5258,0 2.7812,-1.25315 2.7812,-2.78125 0,-1.5281 -1.2554,-2.75 -2.7812,-2.75 z m -52.0938,5.21875 c -3.8626,0 -7,3.13741 -7,7 0,3.86259 3.1374,7 7,7 3.8626,0 7,-3.13741 7,-7 0,-3.86259 -3.1374,-7 -7,-7 z m 56.5,9.84375 c -3.0813,0 -5.5625,2.48117 -5.5625,5.5625 0,3.08133 2.4812,5.59375 5.5625,5.59375 3.0813,0 5.5938,-2.51242 5.5938,-5.59375 0,-3.08133 -2.5125,-5.5625 -5.5938,-5.5625 z m -25.3438,4.125 c -1.4512,0 -2.625,1.17216 -2.625,2.625 0,1.45284 1.1738,2.625 2.625,2.625 1.4529,0 2.625,-1.17216 2.625,-2.625 0,-1.45284 -1.1721,-2.625 -2.625,-2.625 z m 1.5,18.3125 c -3.212,0 -5.8437,2.62951 -5.8437,5.84375 0,3.21424 2.6317,5.8125 5.8437,5.8125 3.2147,0 5.8126,-2.59826 5.8126,-5.8125 0,-3.21424 -2.5979,-5.84375 -5.8126,-5.84375 z m 13.6563,22.59375 c -3.8226,0 -6.9456,3.04163 -7.0313,6.84375 -1.886,0.31018 -3.3437,1.9307 -3.3437,3.90625 0,2.19684 1.8032,4 4,4 1.2596,0 2.3666,-0.61757 3.0937,-1.53125 0.6178,0.32603 1.2935,0.55599 2,0.6875 0.5955,0.20872 1.2414,0.34375 1.9063,0.34375 2.2713,0 4.2324,-1.33106 5.1563,-3.25 0.01,-0.0213 0.021,-0.041 0.031,-0.0625 0.7536,-1.12243 1.1875,-2.48431 1.1875,-3.9375 0,-3.87518 -3.1248,-7 -7,-7 z M 2040,555.625 c -1.0555,0 -1.9062,0.8507 -1.9062,1.90625 0,1.05555 0.8507,1.90625 1.9062,1.90625 1.0555,0 1.9062,-0.8507 1.9062,-1.90625 0,-1.05555 -0.8507,-1.90625 -1.9062,-1.90625 z"
           id="path6180"
           inkscape:connector-curvature="0"
           sodipodi:nodetypes="ssssssssssssssssscscscsscscscsscsssssssssssssssssssssssssssssssssssssssssssssssssssssssssssssssssssssssssssssssssssssssssssssssssssscscssscscsssscsscssssssssssssssssssssssssssssssssssssssssssssssssssssssssssssssssssssscsscssssssssssssssssssssssssscssscscssssssssscsscssssssssssssssssssssssssssssssssssssssssssssssssscssscssssssssssssssssssscsscsssssssssssssssssssssssssssssssssssssssssssssssssssssscsssscsssssssssssssssssssscsssscsssssssssssssssssssscsscssscssssssssssssssssssssscsssscsssssssssssssssssssssssssssssssssssssssssssssssssssssssssssssssssssssssssssscssccsccsssssss" />
        <path
           inkscape:connector-curvature="0"
           style="fill:#550000;stroke:none"
           d="m 2024.5084,221.62552 c -28.3605,0 -54.5232,9.4081 -75.5312,25.28125 l 7.3437,23.8125 c 18.1018,-16.18461 41.9943,-26.03125 68.1875,-26.03125 5.2132,0 10.3403,0.40427 15.3438,1.15625 l 24.9687,-17.59375 c -12.6523,-4.29262 -26.2091,-6.625 -40.3125,-6.625 z"
           id="path4150-7" />
        <path
           inkscape:connector-curvature="0"
           style="fill:#550000;stroke:none"
           d="m 2096.4147,244.28177 -20.3438,14.3125 c 25.8054,15.07939 44.3903,41.15279 49.4063,71.78125 l 24.4062,18.3125 c 0.01,-0.55348 0.031,-1.10107 0.031,-1.65625 0,-42.5055 -21.1542,-80.06976 -53.5,-102.75 z"
           id="path4148-8" />
        <path
           inkscape:connector-curvature="0"
           style="fill:#550000;stroke:none"
           d="m 1924.0084,272.00052 c -15.6472,20.92303 -24.9062,46.89381 -24.9062,75.03125 0,14.32544 2.4208,28.08164 6.8437,40.90625 l 24.875,0.375 c -5.5709,-12.62854 -8.6562,-26.59458 -8.6562,-41.28125 0,-16.49598 3.9114,-32.07516 10.8437,-45.875 l -9,-29.15625 z"
           id="path4146-5" />
        <path
           inkscape:connector-curvature="0"
           style="fill:#550000;stroke:none"
           d="m 2124.5397,368.71927 c -6.5078,30.17394 -26.3037,55.40982 -52.9688,69.25 l -9.875,28.875 c 39.537,-12.26837 70.701,-43.56733 82.7813,-83.1875 l -19.9375,-14.9375 z"
           id="path4144-0" />
        <path
           inkscape:connector-curvature="0"
           style="fill:#550000;stroke:none"
           d="m 1922.1022,419.43802 c 22.7156,32.07398 60.119,53.03125 102.4062,53.03125 0.7493,0 1.5039,-0.0182 2.25,-0.0312 l 8.0313,-23.5625 c -3.3806,0.33734 -6.8119,0.53125 -10.2813,0.53125 -28.023,0 -53.4241,-11.27806 -71.9062,-29.53125 l -30.5,-0.4375 z"
           id="ellipse26-3" />
        <path
           inkscape:connector-curvature="0"
           style="fill:#aa0000;fill-opacity:1"
           d="m 2002.4459,277.21927 -74.6562,52.59375 c -0.9956,5.59454 -1.5313,11.34004 -1.5313,17.21875 0,3.92338 0.2412,7.78787 0.6875,11.59375 l 94.9063,-66.84375 -19.4063,-14.5625 z"
           id="path3943-7" />
        <path
           style="fill:#aa0000;fill-opacity:1"
           d="m 2159.9459,166.31302 c -43.5641,30.64953 -87.107,61.32922 -130.6562,92 l 19.4375,14.53125 66.4687,-46.8125 -7.4375,21.8125 c 6.613,5.55853 12.6448,11.77159 18.0313,18.53125 11.369,-33.35977 22.7588,-66.71243 34.1562,-100.0625 z"
           id="path3939-5"
           inkscape:connector-curvature="0"
           sodipodi:nodetypes="ccccccc" />
        <path
           inkscape:connector-curvature="0"
           style="fill:#aa0000;fill-opacity:1"
           d="m 2096.6334,280.37552 -37.4687,109.84375 24.25,0.34375 29.5,-86.4375 c -4.2471,-8.72334 -9.7601,-16.7061 -16.2813,-23.75 z"
           id="path3979-8" />
        <path
           inkscape:connector-curvature="0"
           style="fill:#aa0000;fill-opacity:1"
           d="m 1895.1334,352.78177 c -31.1295,21.91657 -55.5312,39.0952 -86.4687,60.875 53.4551,0.81498 111.4917,1.66127 159.7812,2.375 l -7.1562,-23.1875 c -27.073,-0.39076 -54.1459,-0.78417 -81.2188,-1.1875 6.2512,-4.4046 12.5,-8.8125 18.75,-13.21875 -2.0538,-8.26193 -3.3045,-16.85336 -3.6875,-25.65625 z"
           id="path4129-6" />
        <path
           inkscape:connector-curvature="0"
           style="fill:#aa0000;fill-opacity:1"
           d="m 1994.1647,393.31302 7.1562,23.1875 91.25,1.34375 c 6.9429,-6.67331 12.9076,-14.35467 17.6563,-22.8125 z"
           id="path3991-9" />
        <path
           inkscape:connector-curvature="0"
           style="fill:#aa0000;fill-opacity:1"
           d="m 2110.4147,324.15677 -7.8438,22.96875 c 21.6884,16.2488 43.3764,32.49822 65.0625,48.75 l -23,-0.34375 c -3.2722,8.07397 -7.3661,15.73726 -12.125,22.90625 l 66.5625,1 c 9.3913,0.13459 18.7827,0.26918 28.174,0.40377 5.8883,0.8192 8.6659,32.68419 7.4977,49.29698 0.411,8.35738 -6.0598,19.07839 1.1933,19.07839 6.6283,0.26044 1.7833,-5.96996 1.2752,-19.40728 -1.256,-20.9793 1.1098,-48.80936 1.1098,-48.80936 -42.6305,-31.9544 -85.2696,-63.89739 -127.9062,-95.84375 z"
           id="path4023-9"
           sodipodi:nodetypes="cccccccccccc" />
        <path
           inkscape:connector-curvature="0"
           style="fill:#aa0000;fill-opacity:1"
           d="m 2011.0709,249.71927 c -9.7518,1.33426 -19.0657,4.11676 -27.6875,8.09375 l 92.875,69.59375 7.8438,-22.96875 -73.0313,-54.71875 z"
           id="path4019-7" />
        <path
           inkscape:connector-curvature="0"
           style="fill:#aa0000;fill-opacity:1"
           d="m 2048.5397,421.31302 -26.25,76.9375 -6.8125,-22.03125 c -8.7535,-0.60457 -17.2804,-2.05283 -25.4688,-4.3125 10.3799,33.6716 20.78,67.33693 31.1875,101 l 12.6563,-37.15625 38.9375,-114.09375 -24.25,-0.34375 z"
           id="path4047-5" />
        <path
           inkscape:connector-curvature="0"
           style="fill:#aa0000;fill-opacity:1"
           d="m 1971.1022,332.50052 -19.8125,13.96875 26.9375,87.21875 c 8.3924,4.48932 17.4986,7.81865 27.125,9.71875 l -34.25,-110.90625 z"
           id="path4043-4" />
        <path
           style="fill:#aa0000;fill-opacity:1"
           d="m 1894.4459,162.37552 c 15.7231,50.89452 31.4386,101.79135 47.1563,152.6875 l 19.8125,-13.96875 -23.9688,-77.6875 18.4063,13.8125 0.031,0 c 7.2715,-4.54828 15.0422,-8.38745 23.1875,-11.4375 -28.2082,-21.13561 -56.4166,-42.27097 -84.625,-63.40625 z"
           id="path4069-6"
           inkscape:connector-curvature="0"
           sodipodi:nodetypes="cccccccc" />
        <path
           style="fill:#ff5555;fill-opacity:1;stroke:none"
           d="m 2175.6562,157.6875 c -0.7118,0 -1.2812,0.56931 -1.2812,1.28125 0,0.71194 0.5694,1.28125 1.2812,1.28125 0.712,0 1.2813,-0.56931 1.2813,-1.28125 0,-0.71194 -0.5693,-1.28125 -1.2813,-1.28125 z m -16.8124,1.125 c -1.1913,0 -2.1563,0.96561 -2.1563,2.15625 0,1.19064 0.965,2.15625 2.1563,2.15625 1.1902,0 2.1562,-0.96561 2.1562,-2.15625 0,-1.19064 -0.966,-2.15625 -2.1562,-2.15625 z m 32.6562,2.46875 c -0.4602,0 -0.8438,0.35228 -0.8438,0.8125 0,0.46022 0.3836,0.84375 0.8438,0.84375 0.4602,0 0.8438,-0.38353 0.8438,-0.84375 0,-0.46022 -0.3836,-0.8125 -0.8438,-0.8125 z m -264.4375,6.5 c -1.2715,0 -2.3125,1.04104 -2.3125,2.3125 0,1.27146 1.041,2.3125 2.3125,2.3125 1.2715,0 2.2813,-1.04104 2.2813,-2.3125 0,-1.27146 -1.0098,-2.3125 -2.2813,-2.3125 z m -24.4687,3.46875 c -0.3376,0 -0.5938,0.28763 -0.5938,0.625 0,0.33737 0.2562,0.59375 0.5938,0.59375 0.3371,0 0.625,-0.25638 0.625,-0.59375 0,-0.33737 -0.2879,-0.625 -0.625,-0.625 z m 39.9374,5.71875 c -0.5326,0 -0.9687,0.43605 -0.9687,0.96875 0,0.5327 0.4361,0.96875 0.9687,0.96875 0.5399,0 0.9688,-0.43605 0.9688,-0.96875 0,-0.5327 -0.4289,-0.96875 -0.9688,-0.96875 z m 198.9063,4.6875 c -0.3997,0 -0.7187,0.319 -0.7187,0.71875 0,0.39975 0.319,0.71875 0.7187,0.71875 0.3997,0 0.75,-0.319 0.75,-0.71875 0,-0.39975 -0.3503,-0.71875 -0.75,-0.71875 z m -260.5313,0.8125 c -1.0438,0 -1.875,0.86214 -1.875,1.90625 0,1.04411 0.8312,1.875 1.875,1.875 1.0444,0 1.9063,-0.83089 1.9063,-1.875 0,-1.04411 -0.8619,-1.90625 -1.9063,-1.90625 z m 244.375,6.8125 c -0.6239,0 -1.125,0.50101 -1.125,1.125 0,0.62399 0.5011,1.125 1.125,1.125 0.6241,0 1.125,-0.50101 1.125,-1.125 0,-0.62399 -0.5009,-1.125 -1.125,-1.125 z m -251.4374,4.375 c -0.3523,0 -0.625,0.27276 -0.625,0.625 0,0.35224 0.2727,0.65625 0.625,0.65625 0.3522,0 0.6562,-0.30401 0.6562,-0.65625 0,-0.35224 -0.304,-0.625 -0.6562,-0.625 z m 246.2812,0.40625 c -1.1443,0 -2.0938,0.9182 -2.0938,2.0625 0,1.1443 0.9495,2.0625 2.0938,2.0625 1.1443,0 2.0625,-0.9182 2.0625,-2.0625 0,-1.1443 -0.9182,-2.0625 -2.0625,-2.0625 z m -178.8438,1.09375 c -0.4918,0 -0.875,0.38252 -0.875,0.875 0,0.49248 0.3832,0.90625 0.875,0.90625 0.4928,0 0.9063,-0.41377 0.9063,-0.90625 0,-0.49248 -0.4135,-0.875 -0.9063,-0.875 z m 214.5626,3.1875 c -0.4177,0 -0.75,0.33232 -0.75,0.75 0,0.41768 0.3323,0.75 0.75,0.75 0.4175,0 0.75,-0.33232 0.75,-0.75 0,-0.41768 -0.3325,-0.75 -0.75,-0.75 z m -282.625,6.25 c -0.8299,0 -1.5,0.67024 -1.5,1.5 0,0.82976 0.6701,1.5 1.5,1.5 0.8297,0 1.5,-0.67024 1.5,-1.5 0,-0.82976 -0.6703,-1.5 -1.5,-1.5 z m 58.5312,5.78125 c -0.8685,0 -1.5625,0.69403 -1.5625,1.5625 0,0.86847 0.694,1.59375 1.5625,1.59375 0.8685,0 1.5938,-0.72528 1.5938,-1.59375 0,-0.86847 -0.7253,-1.5625 -1.5938,-1.5625 z m 202.9688,11.53125 c -0.8714,0 -1.5626,0.69117 -1.5626,1.5625 0,0.87133 0.6912,1.59375 1.5626,1.59375 0.8712,0 1.5937,-0.72242 1.5937,-1.59375 0,-0.87133 -0.7225,-1.5625 -1.5937,-1.5625 z m -4.8438,0.46875 c -1.0827,0 -1.9688,0.88606 -1.9688,1.96875 0,1.08269 0.8861,1.96875 1.9688,1.96875 1.0827,0 1.9688,-0.88606 1.9688,-1.96875 0,-1.08269 -0.8861,-1.96875 -1.9688,-1.96875 z m -143.5938,6.53125 c -0.4764,0 -0.875,0.39473 -0.875,0.875 0,0.48027 0.3986,0.875 0.875,0.875 0.481,0 0.875,-0.39473 0.875,-0.875 0,-0.48027 -0.394,-0.875 -0.875,-0.875 z m -68.875,2.5 c -0.8822,0 -1.5937,0.70524 -1.5937,1.59375 0,0.88851 0.7115,1.625 1.5937,1.625 0.8886,0 1.625,-0.73649 1.625,-1.625 0,-0.88851 -0.7364,-1.59375 -1.625,-1.59375 z m 128.75,3.1875 c -0.7588,0 -1.4062,0.64284 -1.4062,1.40625 0,0.76341 0.6474,1.375 1.4062,1.375 0.7636,0 1.375,-0.61159 1.375,-1.375 0,-0.76341 -0.6114,-1.40625 -1.375,-1.40625 z m -30.3437,1.5625 c -1.0974,0 -2,0.90258 -2,2 0,1.09742 0.9026,1.96875 2,1.96875 1.0974,0 1.9687,-0.87133 1.9687,-1.96875 0,-1.09742 -0.8713,-2 -1.9687,-2 z m -92.6875,0.0312 c -0.643,0 -1.1562,0.54445 -1.1562,1.1875 0,0.64305 0.5132,1.15625 1.1562,1.15625 0.643,0 1.1562,-0.5132 1.1562,-1.15625 0,-0.64305 -0.5132,-1.1875 -1.1562,-1.1875 z m 4.0312,0.46875 c -0.9574,0 -1.7187,0.79203 -1.7187,1.75 0,0.95797 0.7613,1.71875 1.7187,1.71875 0.9586,0 1.75,-0.76078 1.75,-1.71875 0,-0.95797 -0.7914,-1.75 -1.75,-1.75 z m 68.9063,2.75 c -0.246,0 -0.4375,0.22275 -0.4375,0.46875 0,0.246 0.1915,0.4375 0.4375,0.4375 0.246,0 0.4375,-0.1915 0.4375,-0.4375 0,-0.246 -0.1915,-0.46875 -0.4375,-0.46875 z m -13.1875,7.21875 c -1.1094,0 -2.0312,0.8906 -2.0312,2 0,1.1094 0.9218,2 2.0312,2 1.1094,0 2,-0.8906 2,-2 0,-1.1094 -0.8906,-2 -2,-2 z m 123.9375,0.65625 c -1.2603,0 -2.2813,1.02094 -2.2813,2.28125 0,1.26031 1.021,2.28125 2.2813,2.28125 1.2603,0 2.2813,-1.02094 2.2813,-2.28125 0,-1.26031 -1.021,-2.28125 -2.2813,-2.28125 z m -153.875,0.4375 c -0.9399,0 -1.6875,0.74764 -1.6875,1.6875 0,0.93986 0.7476,1.71875 1.6875,1.71875 0.9399,0 1.7187,-0.77889 1.7187,-1.71875 0,-0.93986 -0.7788,-1.6875 -1.7187,-1.6875 z m 142.2187,7.1875 c -1.2233,0 -2.2187,0.96418 -2.2187,2.1875 0,1.22332 0.9954,2.21875 2.2187,2.21875 1.2239,0 2.2188,-0.99543 2.2188,-2.21875 0,-1.22332 -0.9949,-2.1875 -2.2188,-2.1875 z m -66.125,0.21875 c -0.7663,0 -1.4062,0.60801 -1.4062,1.375 0,0.76699 0.6399,1.40625 1.4062,1.40625 0.7736,0 1.375,-0.63926 1.375,-1.40625 0,-0.76699 -0.6014,-1.375 -1.375,-1.375 z m -69.4687,3.96875 c -0.4371,0 -0.7813,0.34415 -0.7813,0.78125 0,0.4371 0.3442,0.78125 0.7813,0.78125 0.4371,0 0.7813,-0.34415 0.7813,-0.78125 0,-0.4371 -0.3442,-0.78125 -0.7813,-0.78125 z m 51.8125,3.8125 c -0.9882,0 -1.7812,0.82426 -1.7812,1.8125 0,0.98824 0.793,1.78125 1.7812,1.78125 0.9882,0 1.7812,-0.79301 1.7812,-1.78125 0,-0.98824 -0.793,-1.8125 -1.7812,-1.8125 z m -98.6875,10.96875 c -0.4573,0 -0.8125,0.3552 -0.8125,0.8125 0,0.4573 0.3552,0.84375 0.8125,0.84375 0.4573,0 0.8437,-0.38645 0.8437,-0.84375 0,-0.4573 -0.3864,-0.8125 -0.8437,-0.8125 z m 149.2187,0.53125 c -0.375,0 -0.6874,0.31244 -0.6874,0.6875 0,0.37506 0.3124,0.6875 0.6874,0.6875 0.3752,0 0.6876,-0.31244 0.6876,-0.6875 0,-0.37506 -0.3124,-0.6875 -0.6876,-0.6875 z M 2091.8125,276 c -0.5975,0 -1.0937,0.4962 -1.0937,1.09375 0,0.59755 0.4962,1.0625 1.0937,1.0625 0.5975,0 1.0625,-0.46495 1.0625,-1.0625 0,-0.59755 -0.465,-1.09375 -1.0625,-1.09375 z m -145.7813,2.75 c -0.8999,0 -1.625,0.72432 -1.625,1.625 0,0.90068 0.7251,1.625 1.625,1.625 0.9013,0 1.625,-0.72432 1.625,-1.625 0,-0.90068 -0.7237,-1.625 -1.625,-1.625 z m 123.875,5.40625 c -0.2471,0 -0.4687,0.19007 -0.4687,0.4375 0,0.24743 0.2216,0.46875 0.4687,0.46875 0.2475,0 0.4376,-0.22132 0.4376,-0.46875 0,-0.24743 -0.1901,-0.4375 -0.4376,-0.4375 z M 2021.3125,288.5 c -0.4217,0 -0.75,0.35957 -0.75,0.78125 0,0.42168 0.3283,0.75 0.75,0.75 0.4217,0 0.75,-0.32832 0.75,-0.75 0,-0.42168 -0.3283,-0.78125 -0.75,-0.78125 z m 5.5625,1.21875 c -1.0448,0 -1.9062,0.86145 -1.9062,1.90625 0,1.0448 0.8614,1.90625 1.9062,1.90625 1.0448,0 1.875,-0.86145 1.875,-1.90625 0,-1.0448 -0.8302,-1.90625 -1.875,-1.90625 z m 59.4062,0.8125 c -1.0859,0 -1.9687,0.88278 -1.9687,1.96875 0,1.08597 0.8828,1.96875 1.9687,1.96875 1.0861,0 1.9688,-0.88278 1.9688,-1.96875 0,-1.08597 -0.8827,-1.96875 -1.9688,-1.96875 z m -114.3437,2.4375 c -0.7402,0 -1.3437,0.60354 -1.3437,1.34375 0,0.74021 0.6035,1.34375 1.3437,1.34375 0.7402,0 1.3437,-0.60354 1.3437,-1.34375 0,-0.74021 -0.6035,-1.34375 -1.3437,-1.34375 z m 5.1875,3.84375 c -1.2924,0 -2.3438,1.05138 -2.3438,2.34375 0,1.29237 1.0514,2.34375 2.3438,2.34375 1.2924,0 2.3125,-1.05138 2.3125,-2.34375 0,-1.29237 -1.0201,-2.34375 -2.3125,-2.34375 z m 129.75,3.0625 c -1.248,0 -2.25,1.00204 -2.25,2.25 0,1.24796 1.002,2.28125 2.25,2.28125 1.248,0 2.25,-1.03329 2.25,-2.28125 0,-1.24796 -1.002,-2.25 -2.25,-2.25 z m -108.5,2.125 c -1.0792,0 -1.9375,0.85829 -1.9375,1.9375 0,1.07921 0.8583,1.96875 1.9375,1.96875 1.0792,0 1.9688,-0.88954 1.9688,-1.96875 0,-1.07921 -0.8896,-1.9375 -1.9688,-1.9375 z m 66.625,5.875 c -0.9229,0 -1.6875,0.73332 -1.6875,1.65625 0,0.92293 0.7646,1.6875 1.6875,1.6875 0.9229,0 1.6562,-0.76457 1.6562,-1.6875 0,-0.92293 -0.7333,-1.65625 -1.6562,-1.65625 z m 57.8125,11.375 c -1.349,0 -2.4375,1.08846 -2.4375,2.4375 0,1.34904 1.0885,2.4375 2.4375,2.4375 1.349,0 2.4375,-1.08846 2.4375,-2.4375 0,-1.34904 -1.0885,-2.4375 -2.4375,-2.4375 z m -55.125,5.375 c -0.5058,0 -0.9063,0.40043 -0.9063,0.90625 0,0.50582 0.4005,0.9375 0.9063,0.9375 0.5058,0 0.9375,-0.43168 0.9375,-0.9375 0,-0.50582 -0.4317,-0.90625 -0.9375,-0.90625 z m 66.3437,3.78125 c -0.5686,0 -1.0312,0.46255 -1.0312,1.03125 0,0.5687 0.4626,1.03125 1.0312,1.03125 0.569,0 1.0313,-0.46255 1.0313,-1.03125 0,-0.5687 -0.4623,-1.03125 -1.0313,-1.03125 z m -44.6562,0.75 c -0.6259,0 -1.125,0.49907 -1.125,1.125 0,0.62593 0.4991,1.125 1.125,1.125 0.6259,0 1.1562,-0.49907 1.1562,-1.125 0,-0.62593 -0.5303,-1.125 -1.1562,-1.125 z m -142.0625,6.78125 c -0.603,0 -1.0937,0.49071 -1.0937,1.09375 0,0.60304 0.4907,1.09375 1.0937,1.09375 0.603,0 1.0937,-0.49071 1.0937,-1.09375 0,-0.60304 -0.4907,-1.09375 -1.0937,-1.09375 z m 155.9063,8.15625 c -1.2147,0 -2.1876,0.97284 -2.1876,2.1875 0,1.21466 0.9729,2.1875 2.1876,2.1875 1.2145,0 2.2187,-0.97284 2.2187,-2.1875 0,-1.21466 -1.0042,-2.1875 -2.2187,-2.1875 z m -162.8126,0.34375 c -1.2006,0 -2.1874,0.98604 -2.1874,2.1875 0,1.20146 0.9868,2.15625 2.1874,2.15625 1.202,0 2.1876,-0.95479 2.1876,-2.15625 0,-1.20146 -0.9856,-2.1875 -2.1876,-2.1875 z m 233.2188,5.59375 c -1.1693,0 -2.0938,0.95573 -2.0938,2.125 0,1.16927 0.9245,2.125 2.0938,2.125 1.1693,0 2.125,-0.95573 2.125,-2.125 0,-1.16927 -0.9557,-2.125 -2.125,-2.125 z m -30.5,1.46875 c -0.4234,0 -0.75,0.32656 -0.75,0.75 0,0.42344 0.3266,0.78125 0.75,0.78125 0.4234,0 0.7812,-0.35781 0.7812,-0.78125 0,-0.42344 -0.3578,-0.75 -0.7812,-0.75 z m -169.5,0.34375 c -0.9916,0 -1.8125,0.82089 -1.8125,1.8125 0,0.99161 0.8209,1.78125 1.8125,1.78125 0.9916,0 1.7812,-0.78964 1.7812,-1.78125 0,-0.99161 -0.7896,-1.8125 -1.7812,-1.8125 z m 83.1875,1.03125 c -0.7226,0 -1.3125,0.58986 -1.3125,1.3125 0,0.72264 0.5899,1.3125 1.3125,1.3125 0.7226,0 1.3125,-0.58986 1.3125,-1.3125 0,-0.72264 -0.5899,-1.3125 -1.3125,-1.3125 z m -188.125,1.40625 c -0.6774,0 -1.2187,0.54136 -1.2187,1.21875 0,0.67739 0.5413,1.25 1.2187,1.25 0.6774,0 1.2187,-0.57261 1.2187,-1.25 0,-0.67739 -0.5413,-1.21875 -1.2187,-1.21875 z m 69.4375,1.34375 c -1.2167,0 -2.1875,0.97078 -2.1875,2.1875 0,1.21672 0.9708,2.21875 2.1875,2.21875 1.2167,0 2.2188,-1.00203 2.2188,-2.21875 0,-1.21672 -1.0021,-2.1875 -2.2188,-2.1875 z m 60.3438,8.375 c -0.9502,0 -1.7188,0.76935 -1.7188,1.71875 0,0.9494 0.7686,1.71875 1.7188,1.71875 0.9485,0 1.7187,-0.76935 1.7187,-1.71875 0,-0.9494 -0.7702,-1.71875 -1.7187,-1.71875 z m -141.0626,0.21875 c -0.2889,0 -0.5312,0.2378 -0.5312,0.53125 0,0.29345 0.2423,0.53125 0.5312,0.53125 0.2935,0 0.5313,-0.2378 0.5313,-0.53125 0,-0.29345 -0.2378,-0.53125 -0.5313,-0.53125 z m 267.0938,0.3125 c -0.6313,0 -1.1562,0.49366 -1.1562,1.125 0,0.63134 0.5249,1.15625 1.1562,1.15625 0.6313,0 1.1562,-0.52491 1.1562,-1.15625 0,-0.63134 -0.5249,-1.125 -1.1562,-1.125 z m -245.4688,0.875 c -0.4103,0 -0.75,0.30785 -0.75,0.71875 0,0.4109 0.3397,0.75 0.75,0.75 0.4149,0 0.75,-0.3391 0.75,-0.75 0,-0.4109 -0.3351,-0.71875 -0.75,-0.71875 z m 277.4063,1.5 c -1.2764,0 -2.3125,1.03606 -2.3125,2.3125 0,1.27644 1.0361,2.3125 2.3125,2.3125 1.2764,0 2.3125,-1.03606 2.3125,-2.3125 0,-1.27644 -1.0361,-2.3125 -2.3125,-2.3125 z m 17.8437,4.21875 c -0.2968,0 -0.5312,0.23427 -0.5312,0.53125 0,0.29698 0.2344,0.53125 0.5312,0.53125 0.2972,0 0.5313,-0.23427 0.5313,-0.53125 0,-0.29698 -0.2341,-0.53125 -0.5313,-0.53125 z m -54.9062,1.40625 c -0.5602,0.11463 -0.9688,0.62467 -0.9688,1.21875 0,0.67895 0.5399,1.21875 1.2188,1.21875 0.6789,0 1.2188,-0.5398 1.2188,-1.21875 0,-0.67895 -0.5399,-1.21875 -1.2188,-1.21875 -0.085,0 -0.17,-0.0164 -0.25,0 z m -237.1875,1 c -1.1808,0 -2.125,0.94421 -2.125,2.125 0,1.18079 0.9442,2.15625 2.125,2.15625 1.1808,0 2.125,-0.97546 2.125,-2.15625 0,-1.18079 -0.9442,-2.125 -2.125,-2.125 z m 70.125,0.0625 c -0.8855,0 -1.5937,0.70826 -1.5937,1.59375 0,0.88549 0.7082,1.59375 1.5937,1.59375 0.8855,0 1.5937,-0.70826 1.5937,-1.59375 0,-0.88549 -0.7082,-1.59375 -1.5937,-1.59375 z m 164.0625,0.125 c -1.1386,0 -2.0625,0.92389 -2.0625,2.0625 0,1.13861 0.9239,2.0625 2.0625,2.0625 1.1386,0 2.0625,-0.92389 2.0625,-2.0625 0,-1.13861 -0.9239,-2.0625 -2.0625,-2.0625 z m 72.5625,3.8125 c -0.6249,0 -1.125,0.50008 -1.125,1.125 0,0.62492 0.5001,1.125 1.125,1.125 0.6249,0 1.125,-0.50008 1.125,-1.125 0,-0.62492 -0.5001,-1.125 -1.125,-1.125 z m -262.6875,1.6875 c -0.5791,0 -1.0312,0.45218 -1.0312,1.03125 0,0.57907 0.4521,1.0625 1.0312,1.0625 0.5791,0 1.0625,-0.48343 1.0625,-1.0625 0,-0.57907 -0.4834,-1.03125 -1.0625,-1.03125 z m 88.6562,2.65625 c -1.3306,0 -2.4062,1.07559 -2.4062,2.40625 0,1.33066 1.0756,2.40625 2.4062,2.40625 1.3361,0 2.4063,-1.07559 2.4063,-2.40625 0,-1.33066 -1.0702,-2.40625 -2.4063,-2.40625 z m -152.6562,1.75 c -1.1753,0 -2.125,0.9809 -2.125,2.15625 0,1.17535 0.9497,2.125 2.125,2.125 1.1753,0 2.1562,-0.94965 2.1562,-2.125 0,-1.17535 -0.9809,-2.15625 -2.1562,-2.15625 z m 293.9688,0.21875 c -0.6535,0 -1.1876,0.53412 -1.1876,1.1875 0,0.65338 0.5341,1.15625 1.1876,1.15625 0.6529,0 1.1874,-0.50287 1.1874,-1.15625 0,-0.65338 -0.5345,-1.1875 -1.1874,-1.1875 z m -354.0626,4.03125 c -1.2572,0 -2.2812,1.01875 -2.2812,2.28125 0,1.2625 1.024,2.28125 2.2812,2.28125 1.2627,0 2.3126,-1.01875 2.3126,-2.28125 0,-1.2625 -1.0499,-2.28125 -2.3126,-2.28125 z m 286.4376,4.09375 c -0.4062,0 -0.7188,0.34393 -0.7188,0.75 0,0.40607 0.3126,0.71875 0.7188,0.71875 0.4056,0 0.75,-0.31268 0.75,-0.71875 0,-0.40607 -0.3444,-0.75 -0.75,-0.75 z M 2199,394.15625 c -1.3543,0 -2.4688,1.11444 -2.4688,2.46875 0,1.35431 1.1145,2.4375 2.4688,2.4375 1.3543,0 2.4375,-1.08319 2.4375,-2.4375 0,-1.35431 -1.0832,-2.46875 -2.4375,-2.46875 z m -224.0625,1.0625 c -1.2907,0 -2.3437,1.05302 -2.3437,2.34375 0,1.29073 1.053,2.3125 2.3437,2.3125 1.2907,0 2.3437,-1.02177 2.3437,-2.3125 0,-1.29073 -1.053,-2.34375 -2.3437,-2.34375 z m -140.0625,0.46875 c -1.1036,0 -2,0.89637 -2,2 0,1.10363 0.8964,2 2,2 1.1036,0 2,-0.89637 2,-2 0,-1.10363 -0.8964,-2 -2,-2 z m 110.7188,1.25 c -1.0341,0 -1.875,0.81081 -1.875,1.84375 0,1.03294 0.8409,1.875 1.875,1.875 1.0326,0 1.875,-0.84206 1.875,-1.875 0,-1.03294 -0.8424,-1.84375 -1.875,-1.84375 z m 7.6562,0.9375 c -0.6157,0 -1.125,0.5093 -1.125,1.125 0,0.6157 0.5093,1.09375 1.125,1.09375 0.6157,0 1.0938,-0.47805 1.0938,-1.09375 0,-0.6157 -0.4781,-1.125 -1.0938,-1.125 z m -64.9375,0.625 c -1.2075,0 -2.1875,0.98005 -2.1875,2.1875 0,1.20745 0.98,2.1875 2.1875,2.1875 1.2075,0 2.1875,-0.98005 2.1875,-2.1875 0,-1.20745 -0.98,-2.1875 -2.1875,-2.1875 z m -36.7187,0.375 c -0.4366,0 -0.7813,0.34524 -0.7813,0.78125 0,0.43601 0.3447,0.8125 0.7813,0.8125 0.43,0 0.8124,-0.37649 0.8124,-0.8125 0,-0.43601 -0.3824,-0.78125 -0.8124,-0.78125 z m 223.75,0.53125 c -0.2356,0 -0.4376,0.20215 -0.4376,0.4375 0,0.23535 0.202,0.4375 0.4376,0.4375 0.2352,0 0.4062,-0.20215 0.4062,-0.4375 0,-0.23535 -0.171,-0.4375 -0.4062,-0.4375 z m 119.2812,0.0625 c -0.9494,0 -1.7188,0.76935 -1.7188,1.71875 0,0.9494 0.7694,1.71875 1.7188,1.71875 0.9494,0 1.7188,-0.76935 1.7188,-1.71875 0,-0.9494 -0.7694,-1.71875 -1.7188,-1.71875 z m -233.9375,0.0625 c -0.3416,0 -0.5937,0.28339 -0.5937,0.625 0,0.34161 0.2521,0.625 0.5937,0.625 0.3416,0 0.625,-0.28339 0.625,-0.625 0,-0.34161 -0.2834,-0.625 -0.625,-0.625 z m 57.5,1.6875 c -1.3551,0 -2.4687,1.11363 -2.4687,2.46875 0,1.35512 1.1136,2.4375 2.4687,2.4375 1.3551,0 2.4375,-1.08238 2.4375,-2.4375 0,-1.35512 -1.0824,-2.46875 -2.4375,-2.46875 z m 34.5313,0.4375 c -0.6315,0 -1.1563,0.52532 -1.1563,1.15625 0,0.63093 0.5248,1.15625 1.1563,1.15625 0.6309,0 1.125,-0.52532 1.125,-1.15625 0,-0.63093 -0.4941,-1.15625 -1.125,-1.15625 z m -83,0.5625 c -0.8832,0 -1.5938,0.68637 -1.5938,1.5625 0,0.87613 0.7106,1.59375 1.5938,1.59375 0.8759,0 1.5624,-0.71762 1.5624,-1.59375 0,-0.87613 -0.6865,-1.5625 -1.5624,-1.5625 z m 128.375,0.375 c -1.0346,0 -1.875,0.84105 -1.875,1.875 0,1.03395 0.8404,1.875 1.875,1.875 1.0335,0 1.875,-0.84105 1.875,-1.875 0,-1.03395 -0.8415,-1.875 -1.875,-1.875 z m 58.125,1 c -0.6234,0 -1.125,0.50173 -1.125,1.125 0,0.62327 0.5016,1.125 1.125,1.125 0.623,0 1.125,-0.50173 1.125,-1.125 0,-0.62327 -0.502,-1.125 -1.125,-1.125 z m -241.375,0.75 c -0.8207,0 -1.4688,0.65276 -1.4688,1.46875 0,0.81599 0.6481,1.5 1.4688,1.5 0.8152,0 1.4687,-0.68401 1.4687,-1.5 0,-0.81599 -0.6535,-1.46875 -1.4687,-1.46875 z m 245.25,4.9375 c -0.6333,0 -1.1563,0.52298 -1.1563,1.15625 0,0.63327 0.523,1.15625 1.1563,1.15625 0.6331,0 1.125,-0.52298 1.125,-1.15625 0,-0.63327 -0.4919,-1.15625 -1.125,-1.15625 z m -27.4376,4.03125 c -0.4391,0 -0.7812,0.3732 -0.7812,0.8125 0,0.4393 0.3421,0.78125 0.7812,0.78125 0.4395,0 0.8126,-0.34195 0.8126,-0.78125 0,-0.4393 -0.3731,-0.8125 -0.8126,-0.8125 z m 70.9688,0 c -0.5457,0 -1,0.45427 -1,1 0,0.54573 0.4543,0.96875 1,0.96875 0.5457,0 1,-0.42302 1,-0.96875 0,-0.54573 -0.4543,-1 -1,-1 z m 32.5938,0.0312 c -0.6596,0.13484 -1.1563,0.73871 -1.1563,1.4375 0,0.79862 0.6389,1.4375 1.4375,1.4375 0.7986,0 1.4375,-0.63888 1.4375,-1.4375 0,-0.79862 -0.6389,-1.4375 -1.4375,-1.4375 -0.1,0 -0.1872,-0.0193 -0.2812,0 z m -378.7188,1.375 c -0.7193,0 -1.3125,0.59317 -1.3125,1.3125 0,0.71933 0.5932,1.28125 1.3125,1.28125 0.7193,0 1.3125,-0.56192 1.3125,-1.28125 0,-0.71933 -0.5932,-1.3125 -1.3125,-1.3125 z m 389.3438,1.1875 c -0.665,0 -1.1876,0.55429 -1.1876,1.21875 0,0.66446 0.5226,1.1875 1.1876,1.1875 0.6644,0 1.2187,-0.52304 1.2187,-1.1875 0,-0.66446 -0.5543,-1.21875 -1.2187,-1.21875 z m -2.5,0.15625 c -0.5445,0 -1,0.45603 -1,1 0,0.54397 0.4555,0.96875 1,0.96875 0.5439,0 0.9687,-0.42478 0.9687,-0.96875 0,-0.54397 -0.4248,-1 -0.9687,-1 z m -230.875,0.78125 c -1.0545,0 -1.9063,0.85904 -1.9063,1.90625 0,1.04721 0.8518,1.875 1.9063,1.875 1.0471,0 1.9062,-0.82779 1.9062,-1.875 0,-1.04721 -0.8591,-1.90625 -1.9062,-1.90625 z m -217.8126,0.5625 c -0.6507,0 -1.1874,0.53085 -1.1874,1.1875 0,0.65665 0.5367,1.1875 1.1874,1.1875 0.6626,0 1.1876,-0.53085 1.1876,-1.1875 0,-0.65665 -0.525,-1.1875 -1.1876,-1.1875 z m 281.7188,0.125 c -1.2126,0 -2.1875,0.97494 -2.1875,2.1875 0,1.21256 0.9749,2.1875 2.1875,2.1875 1.2126,0 2.2188,-0.97494 2.2188,-2.1875 0,-1.21256 -1.0062,-2.1875 -2.2188,-2.1875 z m -69.3125,0.9375 c -0.9187,0 -1.6563,0.73757 -1.6563,1.65625 0,0.91868 0.7376,1.65625 1.6563,1.65625 0.9187,0 1.6875,-0.73757 1.6875,-1.65625 0,-0.91868 -0.7688,-1.65625 -1.6875,-1.65625 z m 33.1563,3.1875 c -1.0435,0 -1.875,0.83209 -1.875,1.875 0,1.04291 0.8315,1.90625 1.875,1.90625 1.0405,0 1.9062,-0.86334 1.9062,-1.90625 0,-1.04291 -0.8657,-1.875 -1.9062,-1.875 z m -19.625,2.78125 c -0.9013,0 -1.625,0.724 -1.625,1.625 0,0.901 0.7237,1.625 1.625,1.625 0.8976,0 1.625,-0.724 1.625,-1.625 0,-0.901 -0.7274,-1.625 -1.625,-1.625 z m 65.9374,5.4375 c -0.335,0 -0.5937,0.28992 -0.5937,0.625 0,0.33508 0.2587,0.59375 0.5937,0.59375 0.3352,0 0.625,-0.25867 0.625,-0.59375 0,-0.33508 -0.2898,-0.625 -0.625,-0.625 z m -131.4062,0.4375 c -1.2993,0 -2.3438,1.04442 -2.3438,2.34375 0,1.29933 1.0445,2.34375 2.3438,2.34375 1.2993,0 2.375,-1.04442 2.375,-2.34375 0,-1.29933 -1.0757,-2.34375 -2.375,-2.34375 z m 133.3438,0.71875 c -1.1677,0 -2.125,0.95765 -2.125,2.125 0,1.16735 0.9573,2.09375 2.125,2.09375 1.1673,0 2.125,-0.9264 2.125,-2.09375 0,-1.16735 -0.9577,-2.125 -2.125,-2.125 z m 45.5,0.46875 c -0.8509,0 -1.5313,0.68044 -1.5313,1.53125 0,0.85081 0.6804,1.5625 1.5313,1.5625 0.8505,0 1.5312,-0.71169 1.5312,-1.5625 0,-0.85081 -0.6807,-1.53125 -1.5312,-1.53125 z m 71.5937,1.65625 c -0.2569,0 -0.4687,0.21189 -0.4687,0.46875 0,0.25686 0.2118,0.46875 0.4687,0.46875 0.2569,0 0.4687,-0.21189 0.4687,-0.46875 0,-0.25686 -0.2118,-0.46875 -0.4687,-0.46875 z m -227.75,12.375 c -1.0909,0 -1.9687,0.87785 -1.9687,1.96875 0,1.0909 0.8778,2 1.9687,2 1.0909,0 1.9687,-0.9091 1.9687,-2 0,-1.0909 -0.8778,-1.96875 -1.9687,-1.96875 z m 242.0313,1.78125 c -0.424,0 -0.75,0.32624 -0.75,0.75 0,0.42376 0.326,0.78125 0.75,0.78125 0.4236,0 0.7812,-0.35749 0.7812,-0.78125 0,-0.42376 -0.3576,-0.75 -0.7812,-0.75 z m -161.5626,9.8125 c -0.8386,0 -1.5312,0.69207 -1.5312,1.53125 0,0.83918 0.6926,1.53125 1.5312,1.53125 0.8392,0 1.5,-0.69207 1.5,-1.53125 0,-0.83918 -0.6608,-1.53125 -1.5,-1.53125 z m 12.75,5.59375 c -0.8613,0 -1.5624,0.70108 -1.5624,1.5625 0,0.86142 0.7011,1.5625 1.5624,1.5625 0.8615,0 1.5626,-0.70108 1.5626,-1.5625 0,-0.86142 -0.7011,-1.5625 -1.5626,-1.5625 z m 2.3438,7.625 c -0.4287,0 -0.7812,0.35257 -0.7812,0.78125 0,0.42868 0.3525,0.78125 0.7812,0.78125 0.4287,0 0.7812,-0.35257 0.7812,-0.78125 0,-0.42868 -0.3525,-0.78125 -0.7812,-0.78125 z m -105.0312,0.28125 c -0.7147,0 -1.2813,0.59841 -1.2813,1.3125 0,0.71409 0.5666,1.28125 1.2813,1.28125 0.7128,0 1.2812,-0.56716 1.2812,-1.28125 0,-0.71409 -0.5684,-1.3125 -1.2812,-1.3125 z m 18.375,9.375 c -0.9429,0 -1.7188,0.77723 -1.7188,1.71875 0,0.94152 0.7759,1.6875 1.7188,1.6875 0.9411,0 1.6874,-0.74598 1.6874,-1.6875 0,-0.94152 -0.7463,-1.71875 -1.6874,-1.71875 z m 15.3124,14.21875 c -0.3057,0 -0.5624,0.25523 -0.5624,0.5625 0,0.30727 0.2567,0.5625 0.5624,0.5625 0.308,0 0.5626,-0.25523 0.5626,-0.5625 0,-0.30727 -0.2546,-0.5625 -0.5626,-0.5625 z m 11.375,32.125 c -0.3007,0 -0.5624,0.26111 -0.5624,0.5625 0,0.30139 0.2617,0.53125 0.5624,0.53125 0.303,0 0.5313,-0.22986 0.5313,-0.53125 0,-0.30139 -0.2283,-0.5625 -0.5313,-0.5625 z m 10.8126,15.46875 c -0.2337,0 -0.4376,0.17339 -0.4376,0.40625 0,0.23286 0.2039,0.4375 0.4376,0.4375 0.2307,0 0.4062,-0.20464 0.4062,-0.4375 0,-0.23286 -0.1755,-0.40625 -0.4062,-0.40625 z m -2.5,8.90625 c -0.3533,0 -0.6563,0.27242 -0.6563,0.625 0,0.35258 0.303,0.65625 0.6563,0.65625 0.3514,0 0.625,-0.30367 0.625,-0.65625 0,-0.35258 -0.2736,-0.625 -0.625,-0.625 z m 12,12.90625 c -1.0553,0 -1.9063,0.85226 -1.9063,1.90625 0,1.05399 0.851,1.9375 1.9063,1.9375 1.0534,0 1.9062,-0.88351 1.9062,-1.9375 0,-1.05399 -0.8528,-1.90625 -1.9062,-1.90625 z M 1985.75,566 c -0.2605,0 -0.4688,0.20829 -0.4688,0.46875 0,0.26046 0.2083,0.5 0.4688,0.5 0.2605,0 0.5,-0.23954 0.5,-0.5 0,-0.26046 -0.2395,-0.46875 -0.5,-0.46875 z m 12.9688,10.90625 c -0.4783,0 -0.8438,0.39694 -0.8438,0.875 0,0.47806 0.3655,0.84375 0.8438,0.84375 0.4764,0 0.875,-0.36569 0.875,-0.84375 0,-0.47806 -0.3986,-0.875 -0.875,-0.875 z"
           id="path5793"
           inkscape:connector-curvature="0"
           sodipodi:nodetypes="ssssssssssssssssssssssssssssssssssssssssssssssssssssssssssssssssssssssssssssssssssssssssssssssssssssssssssssssssssssssssssssssssssssssssssssssssssssssssssssssssssssssssssssssssssssssssssssssssssssssssssssssssssssssssssssssssssssssssssssssssssssssssssssssssssssssssssssssssssssssssssssssssssssssssssssssssssssssssssscsssscssssssssssssssssssssssssssssssssssssssssssssssssssssssssssssssssssssssssssssssssssssssssssssssssssssssssssssssssssssssssssssssssssssssssssssssssscsssscssssssssssssssssssssssssssssssssssssssssssssssssssssssssssssssssssssssssssssssssssssssssssssssssssssssssssssssssssssssssssssssssssssssssssss" />
      </g>
    </g>
    <text
       xml:space="preserve"
       style="font-size:76.02861023px;font-style:normal;font-weight:normal;line-height:125%;letter-spacing:0px;word-spacing:0px;fill:#000000;fill-opacity:1;stroke:none;font-family:Sans"
       x="44.475796"
       y="571.95062"
       id="text3357"
       sodipodi:linespacing="125%"><tspan
         sodipodi:role="line"
         id="tspan3359"
         x="44.475796"
         y="571.95062"
         style="font-family:georgia;-inkscape-font-specification:georgia">LINUX FOR THE DAMNED</tspan></text>
  </g>
</svg>
